<?xml version="1.0" encoding="UTF-8"?>
<svg width="101px" height="105px" viewBox="0 0 101 105" version="1.1" xmlns="http://www.w3.org/2000/svg" xmlns:xlink="http://www.w3.org/1999/xlink">
    <title>iSula logo</title>
    <g id="页面-1" stroke="none" stroke-width="1" fill="none" fill-rule="evenodd">
        <g id="品牌" transform="translate(-730.000000, -1332.000000)" fill="#22A1DD">
            <g id="卡片/样式14-1" transform="translate(612.000000, 1272.000000)">
                <g id="iSula-logo" transform="translate(118.000000, 60.000000)">
                    <g id="椭圆_1_副本_7_" transform="translate(48.000000, 57.000000)">
                        <path d="M5.07692308,0 C2.38461538,0 0.192307692,2.19230769 0.192307692,4.84615385 C0.192307692,7.53846154 2.38461538,9.69230769 5.07692308,9.69230769 C7.76923077,9.69230769 9.96153846,7.5 9.96153846,4.84615385 C9.96153846,2.15384615 7.76923077,0 5.07692308,0 Z" id="路径"></path>
                    </g>
                    <path d="M100.628935,29.8107256 C103.140195,20.6798066 92.367252,17.1288936 84.5059149,15.9694118 C78.573517,15.0998005 75.8438861,19.846429 73.3690207,23.5422772 C67.9461539,18.8681163 62.0865462,14.7012286 52.9513813,12.8533046 L58.8837792,4.33836023 L80.1749005,12.962006 C82.1038397,3.68615173 71.0761307,1.40342197 63.2511887,0.0990049699 C56.2997286,-1.09671062 50.9860471,8.86758593 49.566639,12.2373299 C24.1992689,8.75888452 4,31.1876102 4,51.6234766 C4,61.7327083 7.1299768,72.421681 13.7538812,79.0887012 C14.8457336,72.9651881 18.4488464,62.9646577 18.4488464,62.9646577 L18.4488464,62.9646577 L30.713988,84.8498763 C30.713988,84.8498763 32.4973469,89.4153359 39.5579922,92.4952093 C39.921943,92.6401446 40.2858938,92.8213136 40.7226348,92.9662488 C56.5544942,100.357945 77.5544548,98.5462549 83.7780133,94.3068996 C90.984239,89.4153359 79.3742087,74.5594755 79.3742087,74.5594755 C79.3742087,74.5594755 61.1402741,79.0887012 49.1662931,71.2259654 C40.2858938,65.3923227 39.0120661,56.1164685 39.0120661,56.1164685 C39.0120661,56.1164685 46.8734031,49.6306173 58.2650629,53.4351669 C70.3846242,57.4933531 74.6428485,75.5740221 82.6861609,70.4288217 C89.4192506,66.1169988 88.4365834,61.7689422 88.4365834,61.7689422 C87.3811261,45.7536001 82.7589511,32.70943 75.8802812,26.0424098 L79.8473448,20.0275981 L100.628935,29.8107256 Z" id="路径"></path>
                    <path d="M21.8671642,86.3720562 C18.4298507,84.4982394 15.3216418,83.8736338 12.4328358,84.0205998 L0,105 L49,105 L21.8671642,86.3720562 Z" id="路径"></path>
                </g>
            </g>
        </g>
    </g>
</svg>