<?xml version="1.0" encoding="UTF-8"?>
<svg width="64px" height="64px" viewBox="0 0 64 64" version="1.1" xmlns="http://www.w3.org/2000/svg" xmlns:xlink="http://www.w3.org/1999/xlink">
    <title>插画/openEuler/三级插画/6</title>
    <g id="改版" stroke="none" stroke-width="1" fill="none" fill-rule="evenodd">
        <g id="首页dark" transform="translate(-1582.000000, -558.000000)">
            <g id="编组-36" transform="translate(420.000000, 144.000000)">
                <g id="编组-22" transform="translate(0.000000, 374.000000)">
                    <g id="编组-21" transform="translate(46.000000, 40.000000)">
                        <g id="编组-14备份-3" transform="translate(1008.000000, 0.000000)">
                            <g id="插画/openEuler/三级插画/6" transform="translate(108.000000, 0.000000)">
                                <rect id="矩形" x="0" y="0" width="64" height="64"></rect>
                                <path d="M26.6666667,29.3333333 L10.6666667,29.3333333 C9.19390733,29.3333333 8,30.5272407 8,32 L8,53.3333333 C8,54.8060927 9.19390733,56 10.6666667,56 L26.6666667,56 C28.139426,56 29.3333333,54.8060927 29.3333333,53.3333333 L29.3333333,32 C29.3333333,30.5272407 28.139426,29.3333333 26.6666667,29.3333333 Z M24,50.6666667 L13.3333333,50.6666667 L13.3333333,34.6666667 L24,34.6666667 L24,50.6666667 Z M53.3333333,8 L37.3333333,8 C35.860574,8 34.6666667,9.19390733 34.6666667,10.6666667 L34.6666667,32 C34.6666667,33.4727593 35.860574,34.6666667 37.3333333,34.6666667 L53.3333333,34.6666667 C54.8060927,34.6666667 56,33.4727593 56,32 L56,10.6666667 C56,9.19390733 54.8060927,8 53.3333333,8 Z M50.6666667,29.3333333 L40,29.3333333 L40,13.3333333 L50.6666667,13.3333333 L50.6666667,29.3333333 Z" id="Icon-color" fill="#FFFFFF" fill-rule="nonzero"></path>
                                <path d="M53.3333333,40 C54.8060927,40 56,41.1939073 56,42.6666667 L56,42.6666667 L56,53.3333333 C56,54.8060927 54.8060927,56 53.3333333,56 L53.3333333,56 L37.3333333,56 C35.860574,56 34.6666667,54.8060927 34.6666667,53.3333333 L34.6666667,53.3333333 L34.6666667,42.6666667 C34.6666667,41.1939073 35.860574,40 37.3333333,40 L37.3333333,40 Z M50.6666667,45.3333333 L40,45.3333333 L40,50.6666667 L50.6666667,50.6666667 L50.6666667,45.3333333 Z" id="形状结合" fill="#406FE7" fill-rule="nonzero"></path>
                                <path d="M26.6666667,8 C28.139426,8 29.3333333,9.19390733 29.3333333,10.6666667 L29.3333333,10.6666667 L29.3333333,21.3333333 C29.3333333,22.8060927 28.139426,24 26.6666667,24 L26.6666667,24 L10.6666667,24 C9.19390733,24 8,22.8060927 8,21.3333333 L8,21.3333333 L8,10.6666667 C8,9.19390733 9.19390733,8 10.6666667,8 L10.6666667,8 Z M24,13.3333333 L13.3333333,13.3333333 L13.3333333,18.6666667 L24,18.6666667 L24,13.3333333 Z" id="形状结合" fill="#406FE7" fill-rule="nonzero"></path>
                            </g>
                        </g>
                    </g>
                </g>
            </g>
        </g>
    </g>
</svg>