<?xml version="1.0" encoding="UTF-8"?>
<svg width="64px" height="64px" viewBox="0 0 64 64" version="1.1" xmlns="http://www.w3.org/2000/svg" xmlns:xlink="http://www.w3.org/1999/xlink">
    <title>插画/openEuler/三级插画/6</title>
    <g id="改版" stroke="none" stroke-width="1" fill="none" fill-rule="evenodd">
        <g id="首页dark" transform="translate(-574.000000, -558.000000)">
            <g id="编组-36" transform="translate(420.000000, 144.000000)">
                <g id="编组-22" transform="translate(0.000000, 374.000000)">
                    <g id="编组-21" transform="translate(46.000000, 40.000000)">
                        <g id="编组" transform="translate(108.000000, 0.000000)">
                            <rect id="矩形" x="0" y="0" width="64" height="64"></rect>
                            <circle id="椭圆形" stroke="#FFFFFF" stroke-width="3.6" cx="16" cy="48" r="6.2"></circle>
                            <circle id="椭圆形" stroke="#FFFFFF" stroke-width="3.6" cx="48" cy="16" r="6.2"></circle>
                            <path d="M15.4,8 L16.6,8 C17.5941125,8 18.4,8.80588745 18.4,9.8 L18.4,41.6 L18.4,41.6 L13.6,41.6 L13.6,9.8 C13.6,8.80588745 14.4058875,8 15.4,8 Z" id="矩形" fill="#FFFFFF"></path>
                            <path d="M47.4,22.4 L48.6,22.4 C49.5941125,22.4 50.4,23.2058875 50.4,24.2 L50.4,56 L50.4,56 L45.6,56 L45.6,24.2 C45.6,23.2058875 46.4058875,22.4 47.4,22.4 Z" id="矩形" fill="#FFFFFF" transform="translate(48.000000, 39.200000) scale(1, -1) translate(-48.000000, -39.200000) "></path>
                            <rect id="矩形" fill="#FFFFFF" x="29.6" y="8" width="4.8" height="18.4" rx="1.8"></rect>
                            <rect id="矩形" fill="#FFFFFF" x="29.6" y="37.6" width="4.8" height="18.4" rx="1.8"></rect>
                            <circle id="椭圆形" stroke="#406FE7" stroke-width="3.6" cx="32" cy="32" r="6.2"></circle>
                        </g>
                    </g>
                </g>
            </g>
        </g>
    </g>
</svg>