<?xml version="1.0" encoding="UTF-8"?>
<svg width="64px" height="64px" viewBox="0 0 64 64" version="1.1" xmlns="http://www.w3.org/2000/svg" xmlns:xlink="http://www.w3.org/1999/xlink">
    <title>插画/openEuler/三级插画/6</title>
    <g id="改版" stroke="none" stroke-width="1" fill="none" fill-rule="evenodd">
        <g id="首页dark" transform="translate(-910.000000, -558.000000)">
            <g id="编组-36" transform="translate(420.000000, 144.000000)">
                <g id="编组-22" transform="translate(0.000000, 374.000000)">
                    <g id="编组-21" transform="translate(46.000000, 40.000000)">
                        <g id="编组-14备份" transform="translate(336.000000, 0.000000)">
                            <g id="插画/openEuler/三级插画/6" transform="translate(108.000000, 0.000000)">
                                <rect id="矩形" x="0" y="0" width="64" height="64"></rect>
                                <path d="M56,16.7789474 C56,13.8024232 53.6121853,11.3894737 50.6666667,11.3894737 L48,11.3894737 L48,7.34736842 C48,6.60323739 47.4030463,6 46.6666667,6 L44,6 C43.2636203,6 42.6666667,6.60323739 42.6666667,7.34736842 L42.6666667,11.3894737 L21.3333333,11.3894737 L21.3333333,7.34736842 C21.3333333,6.60323739 20.7363797,6 20,6 L17.3333333,6 C16.5969537,6 16,6.60323739 16,7.34736842 L16,11.3894737 L13.3333333,11.3894737 C10.3878147,11.3894737 8,13.8024232 8,16.7789474 L8,51.8105263 C8,54.7870504 10.3878147,57.2 13.3333333,57.2 L50.6666667,57.2 C53.6121853,57.2 56,54.7870504 56,51.8105263 L56,16.7789474 Z M50.6666667,51.8105263 L13.3333333,51.8105263 L13.3333333,22.1684211 L50.6666667,22.1684211 L50.6666667,51.8105263 Z" id="Icon-color" fill="#FFFFFF" fill-rule="nonzero"></path>
                                <path d="M32.4,26.8 C33.5045695,26.8 34.4,27.6954305 34.4,28.8 L34.4,33.199 L38.8,33.2 C39.9045695,33.2 40.8,34.0954305 40.8,35.2 L40.8,36 C40.8,37.1045695 39.9045695,38 38.8,38 L34.399,37.999 L34.4,42.4 C34.4,43.5045695 33.5045695,44.4 32.4,44.4 L31.6,44.4 C30.4954305,44.4 29.6,43.5045695 29.6,42.4 L29.599,37.999 L25.2,38 C24.0954305,38 23.2,37.1045695 23.2,36 L23.2,35.2 C23.2,34.0954305 24.0954305,33.2 25.2,33.2 L29.6,33.199 L29.6,28.8 C29.6,27.6954305 30.4954305,26.8 31.6,26.8 L32.4,26.8 Z" id="形状结合" fill="#406FE7"></path>
                            </g>
                        </g>
                    </g>
                </g>
            </g>
        </g>
    </g>
</svg>