<?xml version="1.0" encoding="UTF-8"?>
<svg width="64px" height="64px" viewBox="0 0 64 64" version="1.1" xmlns="http://www.w3.org/2000/svg" xmlns:xlink="http://www.w3.org/1999/xlink">
    <title>插画/openEuler/三级插画/6</title>
    <g id="改版" stroke="none" stroke-width="1" fill="none" fill-rule="evenodd">
        <g id="首页dark" transform="translate(-1246.000000, -558.000000)">
            <g id="编组-36" transform="translate(420.000000, 144.000000)">
                <g id="编组-22" transform="translate(0.000000, 374.000000)">
                    <g id="编组-21" transform="translate(46.000000, 40.000000)">
                        <g id="编组-14备份-2" transform="translate(672.000000, 0.000000)">
                            <g id="插画/openEuler/三级插画/6" transform="translate(108.000000, 0.000000)">
                                <rect id="矩形" x="0" y="0" width="64" height="64"></rect>
                                <path d="M55.1891089,9.95803714 L54.0432826,8.81217769 C53.4295539,8.17764102 52.5414198,7.88824061 51.6716888,8.03938875 L37.0157718,10.7041782 C34.5320997,11.1494486 32.2961195,12.4853907 30.727051,14.4615313 L24.9712727,21.8696458 C21.5943893,20.6595478 17.8249234,21.847073 15.7513685,24.7742663 L8.23688016,35.433424 C7.82474698,36.0310888 7.96693651,36.8487023 8.55664562,37.2721287 L9.64917762,38.0449176 C11.3873432,39.2616939 13.5379089,39.7375576 15.6271382,39.3676833 C17.7163675,38.9978091 19.5728656,37.8125403 20.7876746,36.0729734 L22.4664432,33.7013109 L30.2207557,41.4558481 L27.8491618,43.1346654 C26.1096454,44.3495096 24.924411,46.2060615 24.5545474,48.2953514 C24.1846839,50.3846412 24.6605338,52.5352692 25.8772748,54.2734852 L26.6500414,55.3660488 C27.0734554,55.955775 27.8910452,56.0979687 28.4886928,55.6858236 L39.1475415,48.1711174 C42.07465,46.0975025 43.2621407,42.3279273 42.0520778,38.950946 L49.3800363,33.1950009 C51.399424,31.6725015 52.7925697,29.4642542 53.2971632,26.9860415 L55.9618754,12.3296997 C56.1130192,11.4599435 55.8236271,10.5717837 55.1891089,9.95803714 Z M24.8380371,29.5442394 L34.3777067,17.4194475 C35.2557357,16.3450155 36.4806416,15.6100506 37.8418325,15.3409118 L41.9188422,14.5947707 L49.4066834,22.082829 L48.660564,26.1599568 C48.3947916,27.5086508 47.669676,28.72349 46.6087356,29.5975352 L34.4576481,39.1641292 L24.8380371,29.5442394 Z" id="Icon-color" fill="#FFFFFF" fill-rule="nonzero"></path>
                                <path d="M18.9756703,43.1613133 C18.7254983,42.9090741 18.3849536,42.7671932 18.0296974,42.7671932 C17.6744413,42.7671932 17.3338966,42.9090741 17.0837246,43.1613133 L8.39676289,51.8485268 C8.14453102,52.098706 8.00265419,52.4392606 8.00265419,52.794527 C8.00265419,53.1497935 8.14453102,53.4903481 8.39676289,53.7405273 L10.2620614,55.6058799 C10.5122334,55.8581191 10.8527781,56 11.2080342,56 C11.5632904,56 11.9038351,55.8581191 12.1540071,55.6058799 L20.8409688,46.9186664 C21.0932007,46.6684871 21.2350775,46.3279326 21.2350775,45.9726661 C21.2350775,45.6173997 21.0932007,45.2768451 20.8409688,45.0266659 L18.9756703,43.1613133 Z" id="Path" fill="#406FE7" fill-rule="nonzero"></path>
                                <path d="M35.8166513,22.5358432 C34.3491471,24.1107857 34.3924485,26.5650566 35.9145965,28.0872487 C37.4367445,29.6094408 39.8909442,29.6527435 41.4658411,28.1851968 C42.9333453,26.6102542 42.8900438,24.1559833 41.3678959,22.6337913 C39.8457479,21.1115992 37.3915482,21.0682964 35.8166513,22.5358432 Z" id="Path" fill="#406FE7" fill-rule="nonzero"></path>
                            </g>
                        </g>
                    </g>
                </g>
            </g>
        </g>
    </g>
</svg>