<?xml version="1.0" encoding="UTF-8"?>
<svg width="395px" height="406px" viewBox="0 0 395 406" version="1.1" xmlns="http://www.w3.org/2000/svg" xmlns:xlink="http://www.w3.org/1999/xlink">
    <title>编组</title>
    <defs>
        <polygon id="path-1" points="0 405.55 394.344 405.55 394.344 0 0 0"></polygon>
    </defs>
    <g id="页面-1" stroke="none" stroke-width="1" fill="none" fill-rule="evenodd">
        <g id="编组">
            <path d="M305.6157,112.0002 L175.2337,112.0002 C171.3597,112.0002 168.8857,107.8682 170.7157,104.4532 L216.2567,19.4422 C222.6697,7.4722 235.1487,0.0002 248.7287,0.0002 L379.1107,0.0002 C382.9847,0.0002 385.4587,4.1322 383.6297,7.5472 L338.0887,92.5572 C331.6757,104.5282 319.1957,112.0002 305.6157,112.0002" id="Fill-1" fill="#FFB66E"></path>
            <path d="M141.1401,173.802 L15.0641,173.802 C11.3181,173.802 8.9261,169.806 10.6951,166.504 L54.7321,84.301 C60.9331,72.725 73.0001,65.5 86.1331,65.5 L212.2081,65.5 C215.9541,65.5 218.3471,69.495 216.5781,72.797 L172.5401,155.001 C166.3391,166.576 154.2721,173.802 141.1401,173.802" id="Fill-3" fill="#E2E2E2"></path>
            <path d="M289.9312,229.9377 L192.9892,229.9377 C190.1092,229.9377 188.2692,226.8657 189.6292,224.3267 L223.4912,161.1197 C228.2592,152.2177 237.5372,146.6627 247.6352,146.6627 L344.5772,146.6627 C347.4572,146.6627 349.2972,149.7347 347.9372,152.2737 L314.0762,215.4817 C309.3072,224.3817 300.0292,229.9377 289.9312,229.9377" id="Fill-5" fill="#FF5CAE"></path>
            <path d="M208.8433,132.9377 L117.0973,132.9377 C114.3713,132.9377 112.6303,129.8967 113.9183,127.3827 L145.9643,64.8107 C150.4763,55.9997 159.2583,50.4997 168.8143,50.4997 L260.5603,50.4997 C263.2863,50.4997 265.0273,53.5417 263.7393,56.0547 L231.6943,118.6267 C227.1813,127.4387 218.4003,132.9377 208.8433,132.9377" id="Fill-7" fill="#1241C4"></path>
            <path d="M145.5889,43.5002 L95.4589,43.5002 C93.9699,43.5002 93.0189,41.9112 93.7219,40.5992 L111.2319,7.9132 C113.6969,3.3112 118.4959,0.4372 123.7169,0.4372 L173.8469,0.4372 C175.3359,0.4372 176.2869,2.0262 175.5839,3.3392 L158.0739,36.0242 C155.6089,40.6272 150.8099,43.5002 145.5889,43.5002" id="Fill-9" fill="#1241C4"></path>
            <mask id="mask-2" fill="white">
                <use xlink:href="#path-1"></use>
            </mask>
            <g id="Clip-11"></g>
            <text id="StratoVirt" mask="url(#mask-2)" font-family="FZDHTJW--GB1-0, FZDaHei-B02S" font-size="82.8836" font-weight="normal" fill="#000000">
                <tspan x="0" y="367.851414">StratoVirt</tspan>
            </text>
        </g>
    </g>
</svg>