<!-- Generated by IcoMoon.io -->
<svg version="1.1" xmlns="http://www.w3.org/2000/svg" width="32" height="32" viewBox="0 0 32 32">
<title>internship-summit</title>
<path fill="none" stroke="#000" stroke-linejoin="miter" stroke-linecap="butt" stroke-miterlimit="4" stroke-width="0.8" d="M24.487 5.971c-0.647 0.647-0.647 1.695 0 2.342s1.695 0.647 2.342 0c0.647-0.647 0.647-1.695 0-2.342s-1.695-0.647-2.342 0z"></path>
<path fill="none" stroke="#000" stroke-linejoin="round" stroke-linecap="round" stroke-miterlimit="4" stroke-width="0.8" d="M24.487 8.313l-2.342 2.342"></path>
<path fill="none" stroke="#000" stroke-linejoin="miter" stroke-linecap="butt" stroke-miterlimit="4" stroke-width="0.8" d="M21.402 12.371l-4.996-2.909c-0.248-0.144-0.553-0.144-0.8 0l-4.996 2.909c-0.248 0.144-0.4 0.411-0.4 0.699v5.817c0 0.288 0.152 0.555 0.4 0.699l4.996 2.909c0.248 0.144 0.553 0.144 0.8 0l4.996-2.909c0.248-0.144 0.4-0.411 0.4-0.699v-5.817c0-0.288-0.152-0.555-0.4-0.699z"></path>
<path fill="#002fa7" d="M20.608 14.519c-0.256 0.326-0.912 0.459-1.434 0.291-0.498-0.16-0.659-0.528-0.389-0.818 0.26-0.279 0.842-0.4 1.326-0.274 0.506 0.132 0.742 0.488 0.497 0.801zM17.001 17.425c0.55 0.27 0.713 0.894 0.317 1.401-0.416 0.535-1.248 0.689-1.805 0.339-0.524-0.33-0.571-0.969-0.149-1.423 0.402-0.434 1.116-0.573 1.636-0.317zM16.078 12.669l0.016 0.004c0.155 0.040 0.253 0.115 0.29 0.207l0.002 0c0 0.002 0.001 0.004 0.001 0.007 0.006 0.017 0.011 0.033 0.013 0.051 0.037 0.098 0.143 0.183 0.315 0.23 0.169 0.047 0.371 0.050 0.566 0.017 0.235-0.063 0.501-0.074 0.729-0.014 0.416 0.108 0.559 0.411 0.296 0.682-0.273 0.281-0.858 0.401-1.28 0.265-0.235-0.076-0.365-0.233-0.372-0.365-0.005-0.101-0.157-0.194-0.324-0.245-0.168-0.051-0.362-0.046-0.557-0.022-0.050 0.006-0.154 0.029-0.221 0.051-0.179 0.060-0.334 0.128-0.464 0.236-0.161 0.135-0.214 0.374-0.211 0.463 0.005 0.125 0.119 0.231 0.293 0.297 0.171 0.065 0.383 0.076 0.595 0.043 0.258-0.070 0.541-0.073 0.773 0.009 0.425 0.151 0.532 0.537 0.211 0.867-0.335 0.345-0.979 0.474-1.407 0.284-0.237-0.105-0.321-0.297-0.333-0.475-0.010-0.139-0.133-0.25-0.301-0.319s-0.366-0.067-0.586-0.048c-0.029 0.003-0.16 0.029-0.241 0.051-0.111 0.029-0.338 0.094-0.528 0.283-0.151 0.15-0.218 0.291-0.256 0.376-0.022 0.049-0.049 0.159-0.050 0.197-0.005 0.156 0.083 0.297 0.254 0.388 0.169 0.089 0.392 0.113 0.623 0.079 0.287-0.078 0.588-0.070 0.821 0.044 0.428 0.211 0.478 0.712 0.076 1.125-0.421 0.433-1.138 0.572-1.562 0.305-0.232-0.146-0.3-0.367-0.267-0.624l-0-0.001c0-0.001-0.001-0.061-0.009-0.094 0-0-0.006-0.051-0.038-0.116-0.043-0.087-0.115-0.16-0.211-0.216-0.165-0.096-0.384-0.121-0.612-0.087-0.286 0.078-0.565 0.067-0.748-0.049-0.313-0.197-0.219-0.615 0.182-0.931 0.207-0.163 0.46-0.27 0.698-0.312l0.001-0.001c0.227-0.046 0.461-0.15 0.643-0.298 0.18-0.145 0.273-0.303 0.281-0.44l0.001-0.001 0-0.005 0-0.031c-0.001-0.028-0.003-0.069-0.010-0.112-0.008-0.118-0.002-0.235 0.104-0.362 0.068-0.081 0.216-0.16 0.377-0.191 0.111-0.021 0.253-0.016 0.334-0.021 0.070-0.004 0.191-0.018 0.234-0.031 0.163-0.049 0.26-0.104 0.381-0.202 0.123-0.1 0.2-0.204 0.213-0.3 0.003-0.020 0.010-0.114 0.008-0.125-0.041-0.224 0.268-0.469 0.69-0.548 0.214-0.040 0.416-0.030 0.568 0.019z"></path>
<path fill="none" stroke="#000" stroke-linejoin="miter" stroke-linecap="butt" stroke-miterlimit="4" stroke-width="0.8" d="M24.487 25.973c-0.647-0.647-0.647-1.695 0-2.342s1.695-0.647 2.342 0c0.647 0.647 0.647 1.695 0 2.342s-1.695 0.647-2.342 0z"></path>
<path fill="none" stroke="#000" stroke-linejoin="round" stroke-linecap="round" stroke-miterlimit="4" stroke-width="0.8" d="M24.487 23.631l-2.342-2.342"></path>
<path fill="none" stroke="#000" stroke-linejoin="miter" stroke-linecap="butt" stroke-miterlimit="4" stroke-width="0.8" d="M7.513 5.971c0.647 0.647 0.647 1.695 0 2.342s-1.695 0.647-2.342 0c-0.647-0.647-0.647-1.695 0-2.342s1.695-0.647 2.342 0z"></path>
<path fill="none" stroke="#000" stroke-linejoin="round" stroke-linecap="round" stroke-miterlimit="4" stroke-width="0.8" d="M7.513 8.313l2.342 2.342"></path>
<path fill="none" stroke="#000" stroke-linejoin="miter" stroke-linecap="butt" stroke-miterlimit="4" stroke-width="0.8" d="M7.513 25.973c0.647-0.647 0.647-1.695 0-2.342s-1.695-0.647-2.342 0c-0.647 0.647-0.647 1.695 0 2.342s1.695 0.647 2.342 0z"></path>
<path fill="none" stroke="#000" stroke-linejoin="round" stroke-linecap="round" stroke-miterlimit="4" stroke-width="0.8" d="M7.513 23.631l2.342-2.342"></path>
</svg>
