<!-- Generated by IcoMoon.io -->
<svg version="1.1" xmlns="http://www.w3.org/2000/svg" width="32" height="32" viewBox="0 0 32 32">
<title></title>
<g id="icomoon-ignore">
</g>
<path fill="#406fe7" style="fill: var(--color1, #406fe7)" opacity="0.4" d="M17.6 16c0 3.756-3.044 6.8-6.8 6.8s-6.8-3.044-6.8-6.8c0-3.756 3.044-6.8 6.8-6.8s6.8 3.044 6.8 6.8z"></path>
<path fill="none" stroke="#fff" style="stroke: var(--color2, #fff)" stroke-linejoin="miter" stroke-linecap="butt" stroke-miterlimit="4" stroke-width="0.8" d="M8.43 5.477c0.816 0.816 0.816 2.138 0 2.953s-2.138 0.816-2.953 0c-0.816-0.816-0.816-2.138 0-2.953s2.138-0.816 2.953 0z"></path>
<path fill="none" stroke="#fff" style="stroke: var(--color2, #fff)" stroke-linejoin="round" stroke-linecap="round" stroke-miterlimit="4" stroke-width="0.8" d="M8.43 8.43l2.953 2.953"></path>
<path fill="none" stroke="#fff" style="stroke: var(--color2, #fff)" stroke-linejoin="miter" stroke-linecap="butt" stroke-miterlimit="4" stroke-width="0.8" d="M23.57 5.477c-0.816 0.816-0.816 2.138 0 2.953s2.138 0.816 2.953 0c0.816-0.816 0.816-2.138 0-2.953s-2.138-0.816-2.953 0z"></path>
<path fill="none" stroke="#fff" style="stroke: var(--color2, #fff)" stroke-linejoin="round" stroke-linecap="round" stroke-miterlimit="4" stroke-width="0.8" d="M23.57 8.43l-2.953 2.953"></path>
<path fill="none" stroke="#fff" style="stroke: var(--color2, #fff)" stroke-linejoin="miter" stroke-linecap="butt" stroke-miterlimit="4" stroke-width="0.8" d="M8.43 26.523c0.816-0.816 0.816-2.138 0-2.953s-2.138-0.816-2.953 0c-0.816 0.816-0.816 2.138 0 2.953s2.138 0.816 2.953 0z"></path>
<path fill="none" stroke="#fff" style="stroke: var(--color2, #fff)" stroke-linejoin="round" stroke-linecap="round" stroke-miterlimit="4" stroke-width="0.8" d="M8.43 23.57l2.953-2.953"></path>
<path fill="none" stroke="#fff" style="stroke: var(--color2, #fff)" stroke-linejoin="miter" stroke-linecap="butt" stroke-miterlimit="4" stroke-width="0.8" d="M23.57 26.523c-0.816-0.816-0.816-2.138 0-2.953s2.138-0.816 2.953 0c0.816 0.816 0.816 2.138 0 2.953s-2.138 0.816-2.953 0z"></path>
<path fill="none" stroke="#fff" style="stroke: var(--color2, #fff)" stroke-linejoin="round" stroke-linecap="round" stroke-miterlimit="4" stroke-width="0.8" d="M23.57 23.57l-2.953-2.953"></path>
<path fill="#406fe7" style="fill: var(--color1, #406fe7)" d="M20.547 14.707l-4.976 8.347c-0.098 0.162-0.269 0.262-0.455 0.263h-0.142c-0.1-0-0.195-0.042-0.263-0.117s-0.102-0.176-0.092-0.278l0.398-4.722h-2.538c-0.191-0.002-0.367-0.108-0.462-0.278l-0.135-0.241c-0.068-0.114-0.068-0.258 0-0.373l4.976-8.347c0.1-0.167 0.279-0.267 0.469-0.263h0.142c0.1 0 0.195 0.043 0.263 0.117s0.102 0.176 0.092 0.278l-0.405 4.722h2.538c0.191 0.002 0.367 0.108 0.462 0.278l0.135 0.241c0.066 0.116 0.063 0.26-0.007 0.373z"></path>
</svg>
