<!-- Generated by IcoMoon.io -->
<svg version="1.1" xmlns="http://www.w3.org/2000/svg" width="32" height="32" viewBox="0 0 32 32">
<title></title>
<g id="icomoon-ignore">
</g>
<path fill="#406fe7" style="fill: var(--color1, #406fe7)" opacity="0.4" d="M22.8 12.4c0 3.756-3.044 6.8-6.8 6.8s-6.8-3.044-6.8-6.8c0-3.756 3.044-6.8 6.8-6.8s6.8 3.044 6.8 6.8z"></path>
<path fill="none" stroke="#fff" style="stroke: var(--color2, #fff)" stroke-linejoin="round" stroke-linecap="butt" stroke-miterlimit="4" stroke-width="0.8" d="M15.979 10.171l5.471 2.717-5.471 2.717-5.471-2.717z"></path>
<path fill="none" stroke="#fff" style="stroke: var(--color2, #fff)" stroke-linejoin="round" stroke-linecap="butt" stroke-miterlimit="4" stroke-width="0.8" d="M10.508 12.926l5.508 2.754v6.492l-5.508-3.195z"></path>
<path fill="none" stroke="#fff" style="stroke: var(--color2, #fff)" stroke-linejoin="round" stroke-linecap="butt" stroke-miterlimit="4" stroke-width="0.8" d="M21.524 12.926l-5.508 2.754v6.492l5.508-3.195z"></path>
<path fill="none" stroke="#fff" style="stroke: var(--color2, #fff)" stroke-linejoin="miter" stroke-linecap="butt" stroke-miterlimit="4" stroke-width="0.8" d="M17.708 5.714c0 0.947-0.767 1.714-1.714 1.714s-1.714-0.768-1.714-1.714c0-0.947 0.768-1.714 1.714-1.714s1.714 0.768 1.714 1.714z"></path>
<path fill="none" stroke="#fff" style="stroke: var(--color2, #fff)" stroke-linejoin="miter" stroke-linecap="butt" stroke-miterlimit="4" stroke-width="0.8" d="M16.016 7.429v3.171"></path>
<path fill="none" stroke="#fff" style="stroke: var(--color2, #fff)" stroke-linejoin="miter" stroke-linecap="butt" stroke-miterlimit="4" stroke-width="0.8" d="M5.578 19.915c0.82-0.473 1.868-0.192 2.342 0.627s0.192 1.868-0.627 2.342c-0.82 0.473-1.868 0.192-2.342-0.627s-0.192-1.868 0.627-2.342z"></path>
<path fill="none" stroke="#fff" style="stroke: var(--color2, #fff)" stroke-linejoin="miter" stroke-linecap="butt" stroke-miterlimit="4" stroke-width="0.8" d="M7.908 20.523l2.747-1.586"></path>
<path fill="none" stroke="#fff" style="stroke: var(--color2, #fff)" stroke-linejoin="miter" stroke-linecap="butt" stroke-miterlimit="4" stroke-width="0.8" d="M26.324 19.915c-0.82-0.473-1.868-0.192-2.342 0.627s-0.192 1.868 0.627 2.342c0.82 0.473 1.868 0.192 2.342-0.627s0.192-1.868-0.627-2.342z"></path>
<path fill="none" stroke="#fff" style="stroke: var(--color2, #fff)" stroke-linejoin="miter" stroke-linecap="butt" stroke-miterlimit="4" stroke-width="0.8" d="M23.994 20.523l-2.747-1.586"></path>
<path fill="#406fe7" style="fill: var(--color1, #406fe7)" d="M6.894 9.315c0.615 0.355 0.826 1.141 0.471 1.756s-1.141 0.826-1.756 0.471c-0.615-0.355-0.826-1.141-0.471-1.756s1.141-0.826 1.756-0.471z"></path>
<path fill="#406fe7" style="fill: var(--color1, #406fe7)" d="M6.979 10.882l0.029-0.050c0.11-0.191 0.355-0.257 0.546-0.146l1.163 0.671c0.191 0.11 0.257 0.355 0.146 0.546l-0.029 0.050c-0.11 0.191-0.355 0.257-0.546 0.146l-1.163-0.671c-0.191-0.11-0.257-0.355-0.146-0.546z"></path>
<path fill="#406fe7" style="fill: var(--color1, #406fe7)" d="M17.279 26.714c0-0.71-0.576-1.286-1.286-1.286s-1.286 0.576-1.286 1.286c0 0.71 0.576 1.286 1.286 1.286s1.286-0.576 1.286-1.286z"></path>
<path fill="#406fe7" style="fill: var(--color1, #406fe7)" d="M15.965 25.857h0.057c0.221 0 0.4-0.179 0.4-0.4v-1.343c0-0.221-0.179-0.4-0.4-0.4h-0.057c-0.221 0-0.4 0.179-0.4 0.4v1.343c0 0.221 0.179 0.4 0.4 0.4z"></path>
<path fill="#406fe7" style="fill: var(--color1, #406fe7)" d="M25.093 9.315c-0.615 0.355-0.826 1.141-0.471 1.756s1.141 0.826 1.756 0.471c0.615-0.355 0.826-1.141 0.471-1.756s-1.141-0.826-1.756-0.471z"></path>
<path fill="#406fe7" style="fill: var(--color1, #406fe7)" d="M25.008 10.882l-0.029-0.050c-0.11-0.191-0.355-0.257-0.546-0.146l-1.163 0.671c-0.191 0.11-0.257 0.355-0.146 0.546l0.029 0.050c0.11 0.191 0.355 0.257 0.546 0.146l1.163-0.671c0.191-0.11 0.257-0.355 0.146-0.546z"></path>
</svg>
