<svg width="24" height="25" xmlns="http://www.w3.org/2000/svg"><g transform="translate(0 .5)" fill-rule="nonzero" fill="none"><circle fill="#C71D23" cx="11.961" cy="11.961" r="11.961"/><path d="M18.016 10.632h-6.793a.591.591 0 0 0-.59.591l-.001 1.477a.59.59 0 0 0 .59.59h4.136a.59.59 0 0 1 .59.591v.295c0 .979-.793 1.772-1.772 1.772H8.564a.59.59 0 0 1-.59-.59V9.746c0-.978.793-1.772 1.772-1.772h8.268c.326 0 .59-.264.591-.59V5.907a.59.59 0 0 0-.589-.59h-8.27a4.43 4.43 0 0 0-4.43 4.43v8.269c0 .326.265.59.59.59h8.713a3.987 3.987 0 0 0 3.987-3.987v-3.396a.59.59 0 0 0-.59-.59Z" fill="#FFF"/></g></svg>