<?xml version="1.0" encoding="UTF-8"?>
<svg width="16px" height="16px" viewBox="0 0 16 16" version="1.1" xmlns="http://www.w3.org/2000/svg" xmlns:xlink="http://www.w3.org/1999/xlink">
    <title>切片</title>
    <g id="页面-1" stroke="none" stroke-width="1" fill="none" fill-rule="evenodd">
        <g id="支持/安全公告/详情" transform="translate(-68.000000, -85.000000)" fill="#000000" fill-rule="nonzero">
            <g id="编组" transform="translate(16.000000, 84.000000)">
                <g id="icon-chevron_right" transform="translate(52.000000, 1.000000)">
                    <path d="M10.52,7.52 C10.613795,7.61367824 10.66655,7.74076977 10.6666667,7.87333333 L10.6666667,8.12666667 C10.6651307,8.25894275 10.6125893,8.38551963 10.52,8.48 L7.09333333,11.9 C7.03074447,11.9631042 6.94554585,11.9985994 6.85666667,11.9985994 C6.76778749,11.9985994 6.68258887,11.9631042 6.62,11.9 L6.14666667,11.4266667 C6.08395729,11.3652243 6.04861904,11.2811265 6.04861904,11.1933333 C6.04861904,11.1055402 6.08395729,11.0214424 6.14666667,10.96 L9.11333333,8 L6.14666667,5.04 C6.08356245,4.97741113 6.04806723,4.89221251 6.04806723,4.80333333 C6.04806723,4.71445415 6.08356245,4.62925553 6.14666667,4.56666667 L6.62,4.1 C6.68258887,4.03689578 6.76778749,4.00140056 6.85666667,4.00140056 C6.94554585,4.00140056 7.03074447,4.03689578 7.09333333,4.1 L10.52,7.52 Z" id="Icon-color"></path>
                </g>
            </g>
        </g>
    </g>
</svg>