<svg id="icon-icon-subscribe" viewBox="0 0 32 32">
    <path fill="currentColor" d="M24 2.667c1.473 0 2.667 1.194 2.667 2.667v0 22.667c0 0.736-0.597 1.333-1.333 1.333-0.25 0.001-0.494-0.069-0.707-0.2v0l-7.92-4.96c-0.432-0.27-0.981-0.27-1.413 0v0l-7.92 4.96c-0.212 0.131-0.457 0.201-0.707 0.2-0.736 0-1.333-0.597-1.333-1.333v0-22.667c0-1.473 1.194-2.667 2.667-2.667v0h16zM24 5.333h-16v20.253l5.88-3.667c1.297-0.811 2.943-0.811 4.24 0v0l5.88 3.667v-20.253zM17.333 8v4h4v2.667h-4v4h-2.667v-4h-4v-2.667h4v-4h2.667z"></path>
</svg>