<!-- Generated by IcoMoon.io -->
<svg version="1.1" xmlns="http://www.w3.org/2000/svg" width="24" height="24" viewBox="0 0 24 24">
<title>icon-gitee</title>
<path fill="#999" d="M12 23c-6.075 0-11-4.925-11-11s4.925-11 11-11c6.075 0 11 4.925 11 11s-4.925 11-11 11zM17.568 10.778l-6.247 0c-0.3 0-0.543 0.243-0.543 0.543l-0.001 1.358c0 0.3 0.243 0.543 0.543 0.543h3.803c0.3 0 0.543 0.243 0.543 0.543v0.272c0 0.9-0.73 1.63-1.63 1.63h-5.161c-0.3 0-0.543-0.243-0.543-0.543v-5.161c0-0.9 0.73-1.629 1.63-1.629l7.604-0c0.3 0 0.543-0.243 0.543-0.543l0.002-1.358c0-0.3-0.243-0.543-0.543-0.544l-7.605 0c-2.25-0-4.074 1.824-4.074 4.074v7.605c0 0.3 0.243 0.543 0.543 0.543h8.012c2.025 0 3.667-1.641 3.667-3.667v-3.123c0-0.3-0.243-0.543-0.543-0.543v-0z"></path>
</svg>
