<!-- Generated by IcoMoon.io -->
<svg version="1.1" xmlns="http://www.w3.org/2000/svg" width="32" height="32" viewBox="0 0 32 32">
<title>help</title>
<path fill="currentColor" d="M16 4c-6.627 0-12 5.373-12 12s5.373 12 12 12c6.627 0 12-5.373 12-12 0-3.183-1.264-6.235-3.515-8.485s-5.303-3.515-8.485-3.515zM16 25.6c-5.302 0-9.6-4.298-9.6-9.6s4.298-9.6 9.6-9.6c5.302 0 9.6 4.298 9.6 9.6 0 2.546-1.011 4.988-2.812 6.788s-4.242 2.812-6.788 2.812zM16.6 20.8h-1.2c-0.331 0-0.6 0.269-0.6 0.6v1.2c0 0.331 0.269 0.6 0.6 0.6h1.2c0.331 0 0.6-0.269 0.6-0.6v-1.2c0-0.331-0.269-0.6-0.6-0.6zM20.656 12.4c0-1.909-1.547-3.456-3.456-3.456h-2.4c-1.909 0-3.456 1.547-3.456 3.456v0.6c0 0.331 0.269 0.6 0.6 0.6h0.912c0.331 0 0.6-0.269 0.6-0.6v-0.6c0-0.356 0.142-0.698 0.394-0.95s0.594-0.394 0.95-0.394h2.4c0.742 0 1.344 0.602 1.344 1.344v0.672c0.001 0.579-0.365 1.095-0.912 1.284l-1.14 0.372c-0.922 0.305-1.545 1.165-1.548 2.136v0.936c0 0.331 0.269 0.6 0.6 0.6h0.912c0.331 0 0.6-0.269 0.6-0.6v-0.936c0.006-0.077 0.067-0.138 0.144-0.144l1.14-0.372c1.423-0.46 2.39-1.781 2.4-3.276l-0.084-0.672z"></path>
</svg>
