<svg viewBox="0 0 30 32">
  <path fill="currentColor"
    d="M30.316 6.737c0-1.86-1.508-3.368-3.368-3.368h-1.684v-2.526c0-0.465-0.377-0.842-0.842-0.842h-1.684c-0.465 0-0.842 0.377-0.842 0.842v2.526h-13.474v-2.526c0-0.465-0.377-0.842-0.842-0.842h-1.684c-0.465 0-0.842 0.377-0.842 0.842v2.526h-1.684c-1.86 0-3.368 1.508-3.368 3.368v21.895c0 1.86 1.508 3.368 3.368 3.368h23.579c1.86 0 3.368-1.508 3.368-3.368v-21.895zM26.947 28.632h-23.579v-18.526h23.579v18.526zM20.211 19.166v-1.28c0-0.465-0.377-0.842-0.842-0.842h-2.728v-2.728c0-0.465-0.377-0.842-0.842-0.842h-1.28c-0.465 0-0.842 0.377-0.842 0.842v2.728h-2.728c-0.465 0-0.842 0.377-0.842 0.842v1.28c0 0.465 0.377 0.842 0.842 0.842h2.728v2.728c0 0.465 0.377 0.842 0.842 0.842h1.28c0.465 0 0.842-0.377 0.842-0.842v-2.728h2.728c0.465 0 0.842-0.377 0.842-0.842v0z">
  </path>
</svg>