<svg version="1.1" xmlns="http://www.w3.org/2000/svg" width="1024" height="1024" viewBox="0 0 1024 1024">
<path fill="currentColor"  d="M453.776 133.369c18.245 0 33.013 14.771 33.013 33.013 0 16.213-11.687 29.683-27.079 32.469l-5.935 0.524-351.109-0.056v702.267h702.203l0.016-328.498c0-16.213 11.687-29.683 27.079-32.469l5.935-0.524c16.213 0 29.683 11.687 32.469 27.079l0.524 5.935v394.533h-834.272v-834.272h417.136zM934.945 63.047c16.213 0 29.683 11.687 32.469 27.079l0.524 5.935v271.614l-0.524 5.935c-2.786 15.392-16.277 27.079-32.469 27.079s-29.683-11.687-32.469-27.079l-0.524-5.935-0.002-188.226-437.999 457.822c-12.605 13.173-33.51 13.632-46.66 1.027-11.707-11.2-13.384-28.954-4.749-42.014l3.723-4.648 442.524-462.54h-195.435c-18.245 0-33.013-14.771-33.013-33.013 0-16.213 11.687-29.683 27.079-32.469l5.935-0.524h271.614z"></path>
</svg>