<svg id="icon-iconrobot" viewBox="0 0 32 32">
<path fill="currentColor" stroke="#000" style="stroke: var(--color1, #000)" stroke-linejoin="miter" stroke-linecap="butt" stroke-miterlimit="4" stroke-width="2.6667" d="M7.067 11.6h17.867c0.736 0 1.333 0.597 1.333 1.333v10.533c0 0.736-0.597 1.333-1.333 1.333h-17.867c-0.736 0-1.333-0.597-1.333-1.333v-10.533c0-0.736 0.597-1.333 1.333-1.333z"></path>
<path d="M13.067 17.467c0 0.81-0.657 1.467-1.467 1.467s-1.467-0.657-1.467-1.467c0-0.81 0.657-1.467 1.467-1.467s1.467 0.657 1.467 1.467z"></path>
<path d="M21.867 17.467c0 0.81-0.657 1.467-1.467 1.467s-1.467-0.657-1.467-1.467c0-0.81 0.657-1.467 1.467-1.467s1.467 0.657 1.467 1.467z"></path>
<path d="M18.933 4.267c0 1.62-1.313 2.933-2.933 2.933s-2.933-1.313-2.933-2.933c0-1.62 1.313-2.933 2.933-2.933s2.933 1.313 2.933 2.933z"></path>
<path d="M4.267 15.867v4.667c0 0.736-0.597 1.333-1.333 1.333h-0.267c-0.736 0-1.333-0.597-1.333-1.333v-4.667c0-0.736 0.597-1.333 1.333-1.333h0.267c0.736 0 1.333 0.597 1.333 1.333z"></path>
<path d="M30.667 15.867v4.667c0 0.736-0.597 1.333-1.333 1.333h-0.267c-0.736 0-1.333-0.597-1.333-1.333v-4.667c0-0.736 0.597-1.333 1.333-1.333h0.267c0.736 0 1.333 0.597 1.333 1.333z"></path>
<path d="M17.467 7.067v3.2c0 0.736-0.597 1.333-1.333 1.333h-0.267c-0.736 0-1.333-0.597-1.333-1.333v-3.2c0-0.736 0.597-1.333 1.333-1.333h0.267c0.736 0 1.333 0.597 1.333 1.333z"></path>
<path d="M20.533 30.667h-9.067c-0.736 0-1.333-0.597-1.333-1.333v-0.267c0-0.736 0.597-1.333 1.333-1.333h9.067c0.736 0 1.333 0.597 1.333 1.333v0.267c0 0.736-0.597 1.333-1.333 1.333z"></path>
</svg>