<!-- Generated by IcoMoon.io -->
<svg version="1.1" xmlns="http://www.w3.org/2000/svg" width="32" height="32" viewBox="0 0 32 32">
<title>code</title>
<path fill="currentColor" d="M29.333 15.761v0.506c-0.003 0.264-0.108 0.517-0.293 0.705l-5.52 5.495c-0.125 0.126-0.296 0.197-0.473 0.197s-0.348-0.071-0.473-0.197l-0.947-0.945c-0.125-0.123-0.196-0.29-0.196-0.466s0.071-0.343 0.196-0.466l4.6-4.577-4.6-4.577c-0.126-0.125-0.197-0.295-0.197-0.472s0.071-0.347 0.197-0.472l0.947-0.931c0.125-0.126 0.296-0.197 0.473-0.197s0.348 0.071 0.473 0.197l5.52 5.495c0.188 0.187 0.293 0.441 0.293 0.705v0zM5.773 16.014l4.587-4.577c0.125-0.123 0.196-0.29 0.196-0.466s-0.071-0.343-0.196-0.466l-0.947-0.945c-0.125-0.126-0.296-0.197-0.473-0.197s-0.348 0.071-0.473 0.197l-5.507 5.495c-0.185 0.189-0.29 0.441-0.293 0.705v0.506c0 0.265 0.106 0.518 0.293 0.705l5.52 5.495c0.125 0.126 0.296 0.197 0.473 0.197s0.348-0.071 0.473-0.197l0.947-0.931c0.126-0.125 0.197-0.295 0.197-0.472s-0.071-0.347-0.197-0.472l-4.6-4.577zM20.44 5.862l-1.293-0.492c-0.349-0.118-0.73 0.057-0.867 0.399l-7.080 19.557c-0.125 0.345 0.054 0.726 0.4 0.851l1.253 0.452c0.346 0.117 0.722-0.059 0.853-0.399l7.080-19.531c0.116-0.341-0.061-0.713-0.4-0.838h0.053z"></path>
</svg>
