<!-- Generated by IcoMoon.io -->
<svg version="1.1" xmlns="http://www.w3.org/2000/svg" width="32" height="32" viewBox="0 0 32 32">
<title>migrate-hover</title>
<path fill="#002fa7" opacity="0.4" d="M29.6 22c0 3.756-3.044 6.8-6.8 6.8s-6.8-3.044-6.8-6.8c0-3.756 3.044-6.8 6.8-6.8s6.8 3.044 6.8 6.8z"></path>
<path fill="none" stroke="#000" stroke-linejoin="miter" stroke-linecap="butt" stroke-miterlimit="4" stroke-width="0.8" d="M6.8 7.2h18.4c0.884 0 1.6 0.716 1.6 1.6v3.44h-21.6v-3.44c0-0.884 0.716-1.6 1.6-1.6z"></path>
<path fill="#000" d="M24.64 9.72c0 0.398-0.322 0.72-0.72 0.72s-0.72-0.322-0.72-0.72c0-0.398 0.322-0.72 0.72-0.72s0.72 0.322 0.72 0.72z"></path>
<path fill="#002fa7" d="M22.48 9.72c0 0.398-0.322 0.72-0.72 0.72s-0.72-0.322-0.72-0.72c0-0.398 0.322-0.72 0.72-0.72s0.72 0.322 0.72 0.72z"></path>
<path fill="#e5e5e5" d="M20.32 9.72c0 0.398-0.322 0.72-0.72 0.72s-0.72-0.322-0.72-0.72c0-0.398 0.322-0.72 0.72-0.72s0.72 0.322 0.72 0.72z"></path>
<path fill="none" stroke="#000" stroke-linejoin="round" stroke-linecap="round" stroke-miterlimit="4" stroke-width="0.8" d="M26.8 19.080v-6.84h-21.6v11.306c0 0.881 0.712 1.596 1.592 1.6l11.368 0.054"></path>
<path fill="none" stroke="#000" stroke-linejoin="round" stroke-linecap="butt" stroke-miterlimit="4" stroke-width="0.8" d="M8.080 15.12h9.36v7.2h-9.36v-7.2z"></path>
<path fill="none" stroke="#000" stroke-linejoin="round" stroke-linecap="butt" stroke-miterlimit="4" stroke-width="0.8" d="M19.6 15.12h4.32v2.16h-4.32v-2.16z"></path>
</svg>
