<!-- Generated by IcoMoon.io -->
<svg version="1.1" xmlns="http://www.w3.org/2000/svg" width="1024" height="1024" viewBox="0 0 1024 1024">
<title></title>
<g id="icomoon-ignore">
</g>
<path fill="#002fa7" opacity="0.4" d="M563.2 512c0 120.177-97.423 217.6-217.6 217.6s-217.6-97.423-217.6-217.6c0-120.177 97.423-217.6 217.6-217.6s217.6 97.423 217.6 217.6z"></path>
<path fill="none" stroke="#000" stroke-linejoin="miter" stroke-linecap="butt" stroke-miterlimit="4" stroke-width="25.6" d="M269.758 175.253c26.097 26.097 26.097 68.408 0 94.505s-68.408 26.097-94.505 0c-26.097-26.097-26.097-68.408 0-94.505s68.408-26.097 94.505 0z"></path>
<path fill="none" stroke="#000" stroke-linejoin="round" stroke-linecap="round" stroke-miterlimit="4" stroke-width="25.6" d="M269.758 269.758l94.505 94.505"></path>
<path fill="none" stroke="#000" stroke-linejoin="miter" stroke-linecap="butt" stroke-miterlimit="4" stroke-width="25.6" d="M754.242 175.253c-26.097 26.097-26.097 68.408 0 94.505s68.408 26.097 94.505 0c26.097-26.097 26.097-68.408 0-94.505s-68.408-26.097-94.505 0z"></path>
<path fill="none" stroke="#000" stroke-linejoin="round" stroke-linecap="round" stroke-miterlimit="4" stroke-width="25.6" d="M754.242 269.758l-94.505 94.505"></path>
<path fill="none" stroke="#000" stroke-linejoin="miter" stroke-linecap="butt" stroke-miterlimit="4" stroke-width="25.6" d="M269.758 848.747c26.097-26.097 26.097-68.408 0-94.505s-68.408-26.097-94.505 0c-26.097 26.097-26.097 68.408 0 94.505s68.408 26.097 94.505 0z"></path>
<path fill="none" stroke="#000" stroke-linejoin="round" stroke-linecap="round" stroke-miterlimit="4" stroke-width="25.6" d="M269.758 754.242l94.505-94.505"></path>
<path fill="none" stroke="#000" stroke-linejoin="miter" stroke-linecap="butt" stroke-miterlimit="4" stroke-width="25.6" d="M754.242 848.747c-26.097-26.097-26.097-68.408 0-94.505s68.408-26.097 94.505 0c26.097 26.097 26.097 68.408 0 94.505s-68.408 26.097-94.505 0z"></path>
<path fill="none" stroke="#000" stroke-linejoin="round" stroke-linecap="round" stroke-miterlimit="4" stroke-width="25.6" d="M754.242 754.242l-94.505-94.505"></path>
<path fill="#002fa7" d="M657.515 470.615l-159.233 267.099c-3.125 5.191-8.621 8.37-14.558 8.42h-4.55c-3.186-0.006-6.23-1.359-8.417-3.742-2.176-2.392-3.252-5.627-2.957-8.888l12.739-151.091h-81.209c-6.11-0.068-11.731-3.447-14.786-8.888l-4.322-7.718c-2.171-3.663-2.171-8.265 0-11.928l159.233-267.099c3.209-5.333 8.915-8.533 15.013-8.423h4.55c3.186 0.009 6.23 1.362 8.417 3.745 2.176 2.392 3.252 5.627 2.957 8.888l-12.966 151.091h81.209c6.11 0.068 11.731 3.447 14.786 8.888l4.322 7.718c2.102 3.706 2.014 8.309-0.227 11.928z"></path>
</svg>
