<!-- Generated by IcoMoon.io -->
<svg version="1.1" xmlns="http://www.w3.org/2000/svg" width="1024" height="1024" viewBox="0 0 1024 1024">
<title></title>
<g id="icomoon-ignore">
</g>
<path fill="#002fa7" opacity="0.4" d="M486.4 512c0 120.177-97.423 217.6-217.6 217.6s-217.6-97.423-217.6-217.6c0-120.177 97.423-217.6 217.6-217.6s217.6 97.423 217.6 217.6z"></path>
<path fill="none" stroke="#000" stroke-linejoin="round" stroke-linecap="butt" stroke-miterlimit="4" stroke-width="25.6" d="M588.8 204.8v102.4c-57.64 0-110.83 19.049-153.619 51.196l-255.981 0.004v-153.6h409.6z"></path>
<path fill="none" stroke="#000" stroke-linejoin="round" stroke-linecap="butt" stroke-miterlimit="4" stroke-width="25.6" d="M337.92 512.003l-158.72-0.003v-153.6l255.993-0.014c-49.16 36.928-84.592 91.142-97.273 153.617z"></path>
<path fill="none" stroke="#000" stroke-linejoin="round" stroke-linecap="butt" stroke-miterlimit="4" stroke-width="25.6" d="M332.8 563.2c0 36.409 7.601 71.042 21.302 102.401l-174.902-0.001v-153.6l158.723-0.009c-3.359 16.546-5.123 33.672-5.123 51.209z"></path>
<path fill="none" stroke="#000" stroke-linejoin="round" stroke-linecap="butt" stroke-miterlimit="4" stroke-width="25.6" d="M588.8 819.2h-409.6v-153.6l174.906 0.010c39.506 90.409 129.722 153.59 234.694 153.59z"></path>
<path fill="none" stroke="#000" stroke-linejoin="miter" stroke-linecap="butt" stroke-miterlimit="4" stroke-width="25.6" d="M844.8 563.2c0 141.385-114.615 256-256 256s-256-114.615-256-256c0-141.385 114.615-256 256-256s256 114.615 256 256z"></path>
</svg>
