<?xml version="1.0" encoding="UTF-8"?>
<svg width="48px" height="48px" viewBox="0 0 48 48" version="1.1" xmlns="http://www.w3.org/2000/svg" xmlns:xlink="http://www.w3.org/1999/xlink">
    <title>切片</title>
    <g id="页面-1" stroke="none" stroke-width="1" fill="none" fill-rule="evenodd">
        <g id="网页首页/dark" transform="translate(-1478.000000, -2288.000000)">
            <g id="社区贡献者+社区软件+sig组+社区用户+商用OSV" transform="translate(752.000000, 2238.000000)">
                <g id="楼层一/五个三级插画区域" transform="translate(713.000000, 50.000000)">
                    <g id="插画/openEuler/三级插画/1" transform="translate(13.000000, 0.000000)">
                        <g id="编组-18" transform="translate(4.000000, 6.000000)">
                            <path d="M0,10 L40,10 L40,34 C40,35.1045695 39.1045695,36 38,36 L2,36 C0.8954305,36 1.3527075e-16,35.1045695 0,34 L0,10 L0,10 Z" id="矩形" stroke="#FFFFFF" stroke-width="2"></path>
                            <path d="M2,0 L38,0 C39.1045695,-2.02906125e-16 40,0.8954305 40,2 L40,10 L40,10 L0,10 L0,2 C-1.3527075e-16,0.8954305 0.8954305,2.02906125e-16 2,0 Z" id="矩形" stroke="#FFFFFF" stroke-width="2"></path>
                            <circle id="椭圆形" fill="#D4D4D4" cx="25" cy="5" r="2"></circle>
                            <circle id="椭圆形" fill="#406FE7" cx="30" cy="5" r="2"></circle>
                            <circle id="椭圆形" fill="#FFFFFF" cx="35" cy="5" r="2"></circle>
                            <g id="编组" transform="translate(7.400000, 17.400000)" stroke="#406FE7" stroke-linecap="round" stroke-linejoin="round" stroke-width="2">
                                <line x1="15.0008789" y1="0" x2="9.7453125" y2="11.8804688" id="路径"></line>
                                <polyline id="路径-10" points="7.45048828 1.67988281 0 5.90996094 7.45048828 10.256543"></polyline>
                                <polyline id="路径-10" transform="translate(21.125244, 5.968213) scale(-1, 1) translate(-21.125244, -5.968213) " points="24.8504883 1.67988281 17.4 5.90996094 24.8504883 10.256543"></polyline>
                            </g>
                        </g>
                    </g>
                </g>
            </g>
        </g>
    </g>
</svg>