<?xml version="1.0" encoding="UTF-8"?>
<svg width="48px" height="48px" viewBox="0 0 48 48" version="1.1" xmlns="http://www.w3.org/2000/svg" xmlns:xlink="http://www.w3.org/1999/xlink">
    <title>切片</title>
    <g id="页面-1" stroke="none" stroke-width="1" fill="none" fill-rule="evenodd">
        <g id="网页首页/dark" transform="translate(-1186.000000, -2288.000000)" stroke-width="2">
            <g id="社区贡献者+社区软件+sig组+社区用户+商用OSV" transform="translate(752.000000, 2238.000000)">
                <g id="楼层一/五个三级插画区域" transform="translate(434.000000, 50.000000)">
                    <g id="编组-15" transform="translate(4.000000, 7.000000)">
                        <path d="M38,0 C39.1045695,-2.02906125e-16 40,0.8954305 40,2 L40,24 C40,25.1045695 39.1045695,26 38,26 L35.8737865,26.0007613 C35.9561775,25.6809122 36,25.3455738 36,25 C36,22.790861 34.209139,21 32,21 C29.790861,21 28,22.790861 28,25 C28,25.3455738 28.0438225,25.6809122 28.1262135,26.0007613 L23.8737865,26.0007613 C23.9561775,25.6809122 24,25.3455738 24,25 C24,22.790861 22.209139,21 20,21 C17.790861,21 16,22.790861 16,25 C16,25.3455738 16.0438225,25.6809122 16.1262135,26.0007613 L11.8737865,26.0007613 C11.9561775,25.6809122 12,25.3455738 12,25 C12,22.790861 10.209139,21 8,21 C5.790861,21 4,22.790861 4,25 C4,25.3455738 4.04382251,25.6809122 4.12621352,26.0007613 L2,26 C0.8954305,26 1.3527075e-16,25.1045695 0,24 L0,2 C-1.3527075e-16,0.8954305 0.8954305,2.02906125e-16 2,0 L38,0 Z" id="形状结合" stroke="#FFFFFF"></path>
                        <path d="M2,0 L38,0 C39.1045695,-2.02906125e-16 40,0.8954305 40,2 L40,8 L40,8 L0,8 L0,2 C-1.3527075e-16,0.8954305 0.8954305,2.02906125e-16 2,0 Z" id="矩形" stroke="#FFFFFF"></path>
                        <path d="M32,29 C35.3137085,29 38,31.6862915 38,35 L38,35 L38,35 L26,35 C26,31.6862915 28.6862915,29 32,29 Z" id="矩形" stroke="#FFFFFF" stroke-linejoin="round"></path>
                        <path d="M8,29 C11.3137085,29 14,31.6862915 14,35 L14,35 L14,35 L2,35 C2,31.6862915 4.6862915,29 8,29 Z" id="矩形" stroke="#FFFFFF" stroke-linejoin="round"></path>
                        <circle id="椭圆形" stroke="#FFFFFF" stroke-linejoin="round" cx="32" cy="25" r="4"></circle>
                        <circle id="椭圆形" stroke="#FFFFFF" stroke-linejoin="round" cx="8" cy="25" r="4"></circle>
                        <path d="M20,29 C23.3137085,29 26,31.6862915 26,35 L26,35 L26,35 L14,35 C14,31.6862915 16.6862915,29 20,29 Z" id="矩形" stroke="#406FE7" stroke-linejoin="round"></path>
                        <circle id="椭圆形" stroke="#406FE7" stroke-linejoin="round" cx="20" cy="25" r="4"></circle>
                    </g>
                </g>
            </g>
        </g>
    </g>
</svg>