<?xml version="1.0" encoding="UTF-8"?>
<svg width="48px" height="48px" viewBox="0 0 48 48" version="1.1" xmlns="http://www.w3.org/2000/svg" xmlns:xlink="http://www.w3.org/1999/xlink">
    <title>切片</title>
    <g id="页面-1" stroke="none" stroke-width="1" fill="none" fill-rule="evenodd" stroke-linecap="round" stroke-linejoin="round">
        <g id="网页首页/dark" transform="translate(-1332.000000, -2288.000000)" stroke-width="2">
            <g id="社区贡献者+社区软件+sig组+社区用户+商用OSV" transform="translate(752.000000, 2238.000000)">
                <g id="楼层一/五个三级插画区域" transform="translate(562.000000, 50.000000)">
                    <g id="插画/openEuler/三级插画/1" transform="translate(18.000000, 0.000000)">
                        <g id="编组" transform="translate(4.346909, 6.339909)">
                            <path d="M28.36,35.1408 C28.36,33.3008 27.62,31.9408 26.6,30.9708 C24.98,29.4208 22.74,28.7208 21.4,28.6308 C20.3,28.5208 19.3,28.0608 18.57,27.3308 L18.56,27.3308 C17.83,26.5808 17.37,25.6008 17.37,24.4808 L17.37,23.8408 C17.37,23.2708 17.7,22.7608 18.19,22.4908 C19.19,21.8208 19.74,20.4608 20.18,19.3608 C20.6,18.3408 20.94,17.4608 21.62,16.8608 L21.64,16.8208 L21.7,16.7608 C22.1,16.4108 22.59,15.7508 22.88,15.0408 C23.07,14.4808 23.14,13.9008 22.77,13.5008 L22.74,13.4308 L22.72,13.4308 C22.38,13.0208 22.26,12.2408 22.42,11.7208 C22.72,10.7608 22.94,9.8608 23.04,9.0008 C23.14,8.1608 23.16,7.3908 23.04,6.6708 L23.03,6.6708 C22.9,5.7608 22.19,4.1608 21.23,3.0108 C20.7,2.4208 20.13,1.9808 19.67,2.0608 C19.13,2.1208 18.61,2.0608 18.13,1.8408 C17.68,1.6108 17.27,1.2808 16.98,0.8108 C16.74,0.4808 16.16,0.2608 15.47,0.1408 C14.58,-0.0192 13.56,0.0008 12.8,0.0008 C10.98,0.0308 9.42,0.4108 8.19,1.2308 C7.11,1.9708 6.28,3.0808 5.76,4.6408 C5.33,5.8408 5.11,7.1908 5.13,8.4708 C5.15,9.7008 5.35,10.8308 5.78,11.7808 C5.85,11.9908 5.9,12.2008 5.9,12.4008 C5.9,12.8008 5.76,13.1808 5.5,13.4808 L5.5,13.5008 L5.45,13.5508 C5.15,13.9408 5.2,14.5008 5.38,15.0408 L5.39,14.9908 C5.67,15.7608 6.21,16.4408 6.58,16.7908 L6.6,16.7908 L6.73,16.9308 C7.36,17.5308 7.69,18.3708 8.08,19.3608 C8.55,20.5208 9.12,21.9408 10.22,22.6008 C10.7,22.8808 10.98,23.3808 10.98,23.9008 L10.98,24.4808 C10.98,25.6208 10.51,26.6008 9.79,27.3308 C9.05,28.0608 8.05,28.5208 6.97,28.6308 C5.62,28.7208 3.37,29.4208 1.77,30.9708 C0.73,31.9408 0,33.3008 0,35.1408" id="Stroke-1" stroke="#406FE7"></path>
                            <path d="M39.019,35.1508 C39.019,33.7108 38.429,32.6608 37.629,31.8808 C36.379,30.6908 34.579,30.1408 33.519,30.0208 L33.519,30.0308 C32.339,29.9408 31.479,29.4408 30.859,28.7008 C30.249,27.9208 29.959,26.9108 29.959,25.8408 C29.959,25.2808 30.279,24.7808 30.739,24.5208 C31.499,24.0108 31.939,22.9308 32.299,22.0608 C32.639,21.1908 32.929,20.4308 33.539,19.8908 L33.559,19.8808 L33.599,19.8308 C33.899,19.5508 34.299,19.0408 34.509,18.4808 C34.649,18.1208 34.689,17.7508 34.469,17.5008 C34.219,17.2208 34.099,16.9108 34.079,16.5408 C34.039,15.6008 34.199,14.7808 34.409,13.9608 C34.579,13.2508 34.739,12.4608 34.649,11.7608 C34.509,11.0208 33.969,9.7608 33.189,8.8608 C32.819,8.4208 32.429,8.1208 32.149,8.1508 C31.679,8.2208 31.169,8.1508 30.739,7.9408 L30.659,7.9008 C30.269,7.7008 29.939,7.4308 29.699,7.0408 L29.679,7.0208 C29.459,6.7208 28.599,6.3808 27.579,6.1608 L27.479,6.1408 C26.959,6.0408 26.429,5.9808 25.999,6.0008" id="Stroke-3" stroke="#FFFFFF"></path>
                        </g>
                    </g>
                </g>
            </g>
        </g>
    </g>
</svg>