<!-- Generated by IcoMoon.io -->
<svg version="1.1" xmlns="http://www.w3.org/2000/svg" width="1024" height="1024" viewBox="0 0 1024 1024">
<title></title>
<g id="icomoon-ignore">
</g>
<path fill="none" stroke="#000" stroke-linejoin="round" stroke-linecap="butt" stroke-miterlimit="4" stroke-width="25.6" d="M511.326 325.486l175.081 86.95-175.081 86.95-175.081-86.95z"></path>
<path fill="none" stroke="#000" stroke-linejoin="round" stroke-linecap="butt" stroke-miterlimit="4" stroke-width="25.6" d="M336.244 413.617l176.262 88.131v207.738l-176.262-102.244z"></path>
<path fill="none" stroke="#000" stroke-linejoin="round" stroke-linecap="butt" stroke-miterlimit="4" stroke-width="25.6" d="M688.769 413.617l-176.262 88.131v207.738l176.262-102.244z"></path>
<path fill="none" stroke="#000" stroke-linejoin="miter" stroke-linecap="butt" stroke-miterlimit="4" stroke-width="25.6" d="M566.644 182.857c0 30.297-24.56 54.857-54.857 54.857s-54.857-24.56-54.857-54.857c0-30.297 24.56-54.857 54.857-54.857s54.857 24.56 54.857 54.857z"></path>
<path fill="none" stroke="#000" stroke-linejoin="miter" stroke-linecap="butt" stroke-miterlimit="4" stroke-width="25.6" d="M512.507 237.714v101.486"></path>
<path fill="none" stroke="#000" stroke-linejoin="miter" stroke-linecap="butt" stroke-miterlimit="4" stroke-width="25.6" d="M178.486 637.272c26.238-15.148 59.788-6.159 74.936 20.079s6.159 59.788-20.079 74.936c-26.238 15.148-59.788 6.159-74.936-20.079s-6.159-59.788 20.079-74.936z"></path>
<path fill="none" stroke="#000" stroke-linejoin="miter" stroke-linecap="butt" stroke-miterlimit="4" stroke-width="25.6" d="M253.062 656.728l87.889-50.743"></path>
<path fill="none" stroke="#000" stroke-linejoin="miter" stroke-linecap="butt" stroke-miterlimit="4" stroke-width="25.6" d="M842.375 637.272c-26.238-15.148-59.788-6.159-74.936 20.079s-6.159 59.788 20.079 74.936c26.238 15.148 59.788 6.159 74.936-20.079s6.159-59.788-20.079-74.936z"></path>
<path fill="none" stroke="#000" stroke-linejoin="miter" stroke-linecap="butt" stroke-miterlimit="4" stroke-width="25.6" d="M767.798 656.728l-87.889-50.743"></path>
<path fill="#002fa7" d="M220.605 298.084c19.678 11.361 26.421 36.524 15.059 56.202s-36.524 26.421-56.202 15.059c-19.678-11.361-26.421-36.524-15.059-56.202s36.524-26.421 56.202-15.059z"></path>
<path fill="#002fa7" d="M223.33 348.22l0.914-1.584c3.535-6.122 11.363-8.22 17.485-4.685l37.214 21.486c6.122 3.535 8.22 11.363 4.685 17.485l-0.914 1.584c-3.535 6.122-11.363 8.22-17.485 4.685l-37.214-21.486c-6.122-3.535-8.22-11.363-4.685-17.485z"></path>
<path fill="#002fa7" d="M552.93 854.857c0-22.723-18.42-41.143-41.143-41.143s-41.143 18.42-41.143 41.143c0 22.723 18.42 41.143 41.143 41.143s41.143-18.42 41.143-41.143z"></path>
<path fill="#002fa7" d="M510.873 827.429h1.829c7.069 0 12.8-5.731 12.8-12.8v-42.971c0-7.069-5.731-12.8-12.8-12.8h-1.829c-7.069 0-12.8 5.731-12.8 12.8v42.971c0 7.069 5.731 12.8 12.8 12.8z"></path>
<path fill="#002fa7" d="M802.97 298.084c-19.678 11.361-26.421 36.524-15.059 56.202s36.524 26.421 56.202 15.059c19.678-11.361 26.421-36.524 15.059-56.202s-36.524-26.421-56.202-15.059z"></path>
<path fill="#002fa7" d="M800.244 348.22l-0.914-1.584c-3.535-6.122-11.363-8.22-17.485-4.685l-37.214 21.486c-6.122 3.535-8.22 11.363-4.685 17.485l0.914 1.584c3.535 6.122 11.363 8.22 17.485 4.685l37.214-21.486c6.122-3.535 8.22-11.363 4.685-17.485z"></path>
<path fill="#002fa7" opacity="0.4" d="M729.6 396.8c0 120.177-97.423 217.6-217.6 217.6s-217.6-97.423-217.6-217.6c0-120.177 97.423-217.6 217.6-217.6s217.6 97.423 217.6 217.6z"></path>
</svg>
