<svg id="图层_1" data-name="图层 1" xmlns="http://www.w3.org/2000/svg" viewBox="0 0 800 800"><defs><style>.cls-1,.cls-11,.cls-4{fill:#fff;}.cls-2{fill:#dadce1;}.cls-3{fill:#f79c2f;}.cls-11,.cls-4,.cls-6{stroke:#000;}.cls-4,.cls-6{stroke-linecap:round;stroke-linejoin:round;}.cls-5{fill:#f2f2f2;}.cls-6{fill:none;}.cls-7{fill:#ffca6e;}.cls-8{fill:#002570;}.cls-9{fill:#3165f0;}.cls-10{fill:#5789f7;}.cls-11{stroke-miterlimit:10;}</style></defs><path class="cls-1" d="M250.75,233v5.16H230.47v-5.84q-.69-19.93,18.91-34,10.31-7.9,13.4-13.06,3.27-4.81,3.1-13.41-1.89-16.32-19.77-17.53-24.23-1.2-28.7,24.23l-21.14-6.36q9.1-39.34,51.39-37.63,37.8,2.24,41.25,37.81.85,22.51-25.78,40.73Q249.72,221.7,250.75,233Zm-22.68,18.91h25.09V277H228.07Z"/><path class="cls-2" d="M614.29,418s-30.25,5.72-54.85,67.21-78.26,29.63-78.26,94.75H614.29Z"/><path class="cls-3" d="M395.91,265s-4.45,4.45-10,4.45-14.53,7.26-14.81,13.13,5.31,11.18,4.47,15.94-11.18,10.56-.56,25.4,20.73,5.9,36.5,17.92,46.81,5.59,46.81,5.59L452.74,289s-2.58-22.26-3.42-22.45L411.47,258Z"/><path class="cls-4" d="M580.43,608.08s13.39-.94,21.78,0a17.06,17.06,0,0,1,12.08,6.59H580.43Z"/><path class="cls-1" d="M496.41,424.39s62.75,176.8,80.64,182.67,40.25,5,42.48,11.18H573.14s-17.33.84-23.76-10.62-81-169.83-81-169.83S476.71,424.39,496.41,424.39Z"/><path class="cls-4" d="M336.47,362.76s-42.83,12.32-56,11.2c0,0,26.84-52.13,33-56.95s7-5.38,14,3.29,15.37,15.65,21,15.37c0,0,7.55,3.07,9.78-.28s-9.78-33.54-33-39.41-57.85,45-67.08,59.25-27.95,38.61-3.35,48.09,94.73-13.1,94.73-13.1Z"/><path class="cls-5" d="M405.47,337.58s-11.3,3.12-16.15,3.49-37.45,13.42-53.48,18.64c0,0,3.17,20.68,18.26,37.26s78.64,81.8,103.23,82.17c0,0,9.69-4.28,13.42-6.33,0,0-12.86-22.36-15.47-31.49,0,0,39.13-7.83,51.24-27.39,0,0-24.59-45.65-38.75-54.6s-31.91-18.53-31.91-18.53Z"/><path class="cls-6" d="M463.48,393.25s1.31,7.45-1.12,13-14.9,13-7.08,35"/><path class="cls-6" d="M373.48,372.56s-5.77,7.83-7.08,14.91S360,403.32,360,403.32"/><path class="cls-4" d="M403.48,266.54a34.8,34.8,0,0,0-6.71,11.37c-1.87,5.78-5.6,8.15-11.91,9.08a1.08,1.08,0,0,0-.63,1.83,14.81,14.81,0,0,0,4.23,2.8,3.73,3.73,0,0,1,2.06,4.41c-1.8,6.3-4.52,19.85,4.58,22.12,11.92,3,17.12-2.56,16.21,3.54-1.68,11.18-6.37,15.23-7.83,17.89-2.28,4.16-18.44,34.85,3.73,41,13.39,3.72,23-8.2,27.92-19.9a27,27,0,0,0-1-23.32c-1.7-3.16-3.16-8.14-2.91-15.84.55-17.33,14-29.07,14-29.07s4.66-22.17-5.59-23.48S403.48,266.54,403.48,266.54Z"/><circle class="cls-2" cx="333.63" cy="427.21" r="114.33"/><path class="cls-1" d="M279.06,326.52c14.66-18.58,31-34.38,46.16-30.54,23.2,5.87,35.22,36.06,33,39.41s-9.78.28-9.78.28c-5.59.28-14-6.71-21-15.37,0,0-4.37-7.44-8.69-6.83C293.92,317,279.06,326.52,279.06,326.52Z"/><path class="cls-7" d="M432,254a9.27,9.27,0,0,1-7.7-3.45c-3.4-4.17-10.3-9.35-22.12-5.25-16,5.54-10.7,18.05-3.27,21.79a7.44,7.44,0,0,1,3.9,5.25c1,5.13,5.65,14.93,11.82,16.19,9.13,1.86,15.5-8.76,22-4.66s-1.3,15.28-8.57,23.66-10.06,24.6,9.69,30.93,1.3,35.41,33.72,47.89,36.71-9.32,54.41-8.2,17,9.13,30.19,8.39,11.55-11.37,20.12-15.65,11.74-9.51,8.2-19.2-16-.93-30.56-4.1S534.29,332.5,523.48,331s-29.25,4.1-39.5-2.05-17.33-13.23-19-42.48C463.5,260.88,444.78,253.26,432,254Z"/><path class="cls-6" d="M418.3,288.7s-10.79,2.86-7.9,13.13a11.24,11.24,0,0,0,6.73,7.9c5.91,2.37,12.71-1.28,13-7.64a1.48,1.48,0,0,0,0-.21c.24-6.94-5.59-8.45-8.17-8s-6.21,2.27-5.95,6.61a5.06,5.06,0,0,0,6.43,4.72c2.3-.58,4.47-3.88,1.8-6.49"/><polygon class="cls-8" points="560.48 209.5 578.18 239.26 596.66 228.27 578.97 198.51 591.71 190.93 555.56 180.2 547.74 217.08 560.48 209.5"/><path class="cls-2" d="M383.1,617.82s14.68.66,24.54,7.94S425.1,669,432.89,665.24l-5-63.55A5.22,5.22,0,0,0,423,596.9c-10.37-.48-35.44-1.71-39.88-2.67Z"/><path class="cls-9" d="M335.84,491.91s-184.18,50.31-151.48,95.31S383,639.2,383,639.2V582.74l47.64.29-51.46-92.24Z"/><path class="cls-6" d="M356.52,578.74c-34.06-5-92.82-12.89-126.33-13.74"/><path class="cls-4" d="M295.28,647.24c-1.86-11.76,39-12.76,47.09-22s9.74-36.06,9.74-36.06h25.58s-5.25,41.12-6.33,53.09a5.48,5.48,0,0,1-5.45,5Z"/><path class="cls-10" d="M381.46,390.22s-23.76-10.92-31.86,13.1-30.47,185.85-30.47,185.85h60.93l10.62-69.59s30.75,98.62,73.23,98.62,55.62-24.56,57-41.05-9.23-47.79-57.86-103.69S403,402,381.46,390.22Z"/><path class="cls-4" d="M390.68,519.58s7.55-55.9,8.39-60.93"/><path class="cls-4" d="M348.42,335.67s.93-1.59-1.77-4-9.78-11.74-9.78-11.74"/><path class="cls-4" d="M342.72,318.43s14.09,16.94,13.53,18.3"/><path class="cls-4" d="M348.58,316.18s9.41,12.73,9.8,16.76"/><rect class="cls-1" x="488.79" y="274.61" width="54.26" height="185.96" rx="27.13"/><circle class="cls-11" cx="515.71" cy="303.55" r="21.31"/></svg>