<?xml version="1.0" encoding="UTF-8"?>
<svg width="86px" height="20px" viewBox="0 0 86 20" version="1.1" xmlns="http://www.w3.org/2000/svg" xmlns:xlink="http://www.w3.org/1999/xlink">
    <title>切片</title>
    <defs>
        <filter id="filter-1">
            <feColorMatrix in="SourceGraphic" type="matrix" values="0 0 0 0 1.000000 0 0 0 0 1.000000 0 0 0 0 1.000000 0 0 0 1.000000 0"></feColorMatrix>
        </filter>
        <polygon id="path-2" points="0 0 18.2517858 0 18.2517858 20 0 20"></polygon>
    </defs>
    <g id="页面-1" stroke="none" stroke-width="1" fill="none" fill-rule="evenodd">
        <g id="手机端首页/light" transform="translate(-137.000000, -5345.000000)">
            <g id="页尾/1" transform="translate(0.000000, 5100.000000)">
                <g id="编组" transform="translate(137.000000, 245.000000)" filter="url(#filter-1)">
                    <g>
                        <path d="M36.2560438,12.6046565 C35.1361293,12.6046565 34.2279445,11.7280732 34.2279445,10.6467768 C34.2279445,9.56548033 35.1361293,8.68889705 36.2560438,8.68889705 C37.3760499,8.68889705 38.2841431,9.56548033 38.2841431,10.6467768 C38.2841431,11.7280732 37.3760499,12.6046565 36.2560438,12.6046565 M36.2560438,7.01426883 C35.4146198,7.01426883 34.6403228,7.28423877 34.0136506,7.73474944 L34.0136506,7.12778193 C34.0136506,7.06509295 33.9609013,7.01426883 33.8959721,7.01426883 L32.4433526,7.01426883 C32.378515,7.01426883 32.3258573,7.06509295 32.3258573,7.12778193 L32.3258573,16.488009 C32.3258573,16.5507865 32.378515,16.6016106 32.4433526,16.6016106 L33.8959721,16.6016106 C33.9609013,16.6016106 34.0136506,16.5507865 34.0136506,16.488009 L34.0136506,13.5587156 C34.6403228,14.0093148 35.4146198,14.2791962 36.2560438,14.2791962 C38.3342366,14.2791962 40.0187331,12.6528243 40.0187331,10.6467768 C40.0187331,8.64046362 38.3342366,7.01426883 36.2560438,7.01426883" id="Fill-1" fill="#000000"></path>
                        <path d="M43.3160017,9.29866255 C43.6931223,8.94112282 44.165393,8.76226442 44.7326308,8.76226442 C45.313239,8.76226442 45.7896308,8.93899777 46.1626304,9.29237594 C46.2955109,9.41837372 46.3896537,9.53675673 46.4735397,9.69064579 C46.4830638,9.70817746 46.5061416,9.7481107 46.5121858,9.76705906 C46.529311,9.82036241 46.4875512,9.82036241 46.4875512,9.82036241 L42.990623,9.82036241 C42.990623,9.82036241 42.93998,9.82036241 42.9642483,9.77210606 C42.9885167,9.72393825 43.0156239,9.67718714 43.0443796,9.63141002 C43.1191993,9.51214156 43.2083053,9.40048788 43.3160017,9.29866255 M46.1920271,12.0153623 C46.1793893,12.0296179 46.1670261,12.0443162 46.1528315,12.0577748 C45.7732382,12.4171739 45.2977622,12.5968292 44.7260371,12.5968292 C44.154312,12.5968292 43.6820413,12.4193875 43.3094996,12.0637958 C43.1437424,11.9058337 43.0176386,11.7246732 42.9276169,11.5224392 C42.8880549,11.4335413 42.8549951,11.3406589 42.8294447,11.243792 C42.8244078,11.2249322 42.826972,11.211385 42.8328331,11.2017337 C42.8392436,11.1911084 42.8527056,11.1786238 42.8692813,11.1783581 C42.8803623,11.1782696 42.9325621,11.1783581 42.9325621,11.1783581 L44.3485502,11.1783581 L46.6564221,11.1783581 C47.0660531,11.1782696 47.9493285,11.1782696 48.358868,11.1783581 C48.3607911,11.1783581 48.4650076,11.180129 48.4761801,11.0921165 C48.4761801,11.0921165 48.5008148,10.8842157 48.5009064,10.6731274 C48.5009979,10.1671883 48.3660111,9.69755221 48.3659195,9.69755221 C48.2823999,9.40730575 48.160234,9.12724182 47.9993305,8.85753751 C47.6651602,8.29696693 47.1998494,7.85318558 46.6037644,7.52583928 C46.0073131,7.19902425 45.3704756,7.03539537 44.693252,7.03539537 C43.7562199,7.03539537 42.9267927,7.34972574 42.2053366,7.97820938 C41.3824114,8.7001067 40.9712236,9.60289892 40.9712236,10.6859663 C40.9712236,11.6966048 41.3351569,12.5557449 42.0632066,13.2628554 C42.791348,13.969966 43.6702276,14.3236983 44.6996625,14.3236983 C45.3990481,14.3236983 46.0396403,14.1631685 46.6202486,13.8425515 C47.1211834,13.5659408 47.5255944,13.1914006 47.8445626,12.7297334 C47.8510647,12.7204363 47.8544531,12.6983889 47.8313753,12.6876752 C47.6628707,12.6095795 47.4905198,12.5390987 47.3199089,12.4649876 C47.04499,12.345542 46.7697048,12.2264507 46.4942364,12.1077135 C46.3427654,12.0423682 46.3167571,12.0313002 46.2895583,12.0195239 C46.2606195,12.0068621 46.2235301,11.9801219 46.1920271,12.0153623" id="Fill-3" fill="#000000"></path>
                        <path d="M52.707999,7.03993767 C50.9749659,7.03993767 49.5701504,8.39616251 49.5701504,10.069197 L49.5701504,11.9712941 L49.5701504,13.3459361 L49.5701504,14.1667368 C49.5701504,14.2343842 49.6269292,14.2891928 49.6969868,14.2891928 L51.2570279,14.2891928 C51.3271771,14.2891928 51.3839559,14.2343842 51.3839559,14.1667368 L51.3839559,13.3459361 L51.3839559,12.812637 L51.3839559,11.9712941 L51.3839559,10.069197 C51.3839559,9.36314897 51.976744,8.79089062 52.707999,8.79089062 C53.4391624,8.79089062 54.0320422,9.36314897 54.0320422,10.069197 L54.0320422,11.9712941 L54.0320422,12.812637 L54.0320422,13.3459361 L54.0320422,14.1667368 C54.0320422,14.2343842 54.0888209,14.2891928 54.1588785,14.2891928 L55.7189197,14.2891928 C55.7890689,14.2891928 55.8458476,14.2343842 55.8458476,14.1667368 L55.8458476,13.3459361 L55.8458476,11.9712941 L55.8458476,10.069197 C55.8458476,8.39616251 54.4409406,7.03993767 52.707999,7.03993767" id="Fill-5" fill="#000000"></path>
                        <path d="M62.9571078,6.63936567 C63.0271654,6.63936567 63.0839442,6.58446854 63.0839442,6.51690965 L63.0839442,5.00865515 C63.0839442,4.94100772 63.0271654,4.88619913 62.9571078,4.88619913 L58.642566,4.88619913 L56.9887484,4.88619913 C56.9186907,4.88619913 56.861912,4.94100772 56.861912,5.00865515 L56.861912,6.51690965 L56.861912,8.45017421 L56.861912,9.95834016 L56.861912,12.6685763 L56.861912,14.1768308 C56.861912,14.2444782 56.9186907,14.2992868 56.9887484,14.2992868 L58.642566,14.2992868 L62.9571078,14.2992868 C63.0271654,14.2992868 63.0839442,14.2444782 63.0839442,14.1768308 L63.0839442,12.6685763 C63.0839442,12.6009288 63.0271654,12.5461202 62.9571078,12.5461202 L58.7694023,12.5461202 L58.7694023,10.0808847 L62.7422645,10.0808847 C62.8124137,10.0808847 62.8691924,10.0259876 62.8691924,9.95834016 L62.8691924,8.45017421 C62.8691924,8.38252677 62.8124137,8.32771818 62.7422645,8.32771818 L58.7694023,8.32771818 L58.7694023,6.63936567 L62.9571078,6.63936567 Z" id="Fill-7" fill="#000000"></path>
                        <path d="M66.907057,14.2708642 C65.1741154,14.2708642 63.7692084,12.9146394 63.7692084,11.2416049 L63.7692084,9.33950779 L63.7692084,7.96477729 L63.7692084,7.14397659 C63.7692084,7.0764177 63.8259871,7.02152056 63.8961363,7.02152056 L65.4561775,7.02152056 C65.5262351,7.02152056 65.5830138,7.0764177 65.5830138,7.14397659 L65.5830138,7.96477729 L65.5830138,8.49816493 L65.5830138,9.33950779 L65.5830138,11.2416049 C65.5830138,11.9475644 66.1758936,12.5198227 66.907057,12.5198227 C67.638312,12.5198227 68.2311002,11.9475644 68.2311002,11.2416049 L68.2311002,9.33950779 L68.2311002,8.49816493 L68.2311002,7.96477729 L68.2311002,7.14397659 C68.2311002,7.0764177 68.2878789,7.02152056 68.3580281,7.02152056 L69.9180693,7.02152056 C69.9881269,7.02152056 70.0449056,7.0764177 70.0449056,7.14397659 L70.0449056,7.96477729 L70.0449056,9.33950779 L70.0449056,11.2416049 C70.0449056,12.9146394 68.6400901,14.2708642 66.907057,14.2708642" id="Fill-9" fill="#000000"></path>
                        <path d="M72.7667493,14.2575915 L71.0488267,14.2575915 C71.023551,14.2575915 71.0030374,14.2377577 71.0030374,14.2133196 L71.0030374,4.93047986 C71.0030374,4.90604178 71.023551,4.88620798 71.0488267,4.88620798 L72.7667493,4.88620798 C72.792025,4.88620798 72.8125386,4.90604178 72.8125386,4.93047986 L72.8125386,14.2133196 C72.8125386,14.2377577 72.792025,14.2575915 72.7667493,14.2575915" id="Fill-11" fill="#000000"></path>
                        <path d="M85.4932236,7.3267929 C84.905106,7.43995183 84.3995922,7.70381225 84.0145958,8.0609978 L84.0145958,7.14120517 C84.0145958,7.07355773 83.9578171,7.01874914 83.8878511,7.01874914 L82.4313853,7.01874914 C82.3615108,7.01874914 82.3046405,7.07355773 82.3046405,7.14120517 L82.3046405,14.1812314 C82.3046405,14.2488788 82.3615108,14.3036874 82.4313853,14.3036874 L83.8878511,14.3036874 C83.9578171,14.3036874 84.0145958,14.2488788 84.0145958,14.1812314 L84.0145958,10.5181758 C84.0475641,10.1566516 84.1542532,9.89854655 84.4099406,9.63689973 C84.7731412,9.21587413 85.2782887,8.96184206 85.892781,8.84363614 C85.920163,8.83841206 85.9480029,8.83549011 85.9480029,8.83549011 C85.9758428,8.83309943 85.9994701,8.81742718 85.9994701,8.78422327 C85.997089,7.88249357 85.998829,7.55435038 85.9993785,7.53584473 C86.0006606,7.49157285 85.9995616,7.34087136 85.9995616,7.30456842 C85.9995616,7.28296374 85.9947996,7.2713645 85.9601828,7.2735781 C85.9601828,7.2735781 85.7181407,7.283495 85.4932236,7.3267929" id="Fill-13" fill="#000000"></path>
                        <path d="M76.1091845,9.2658925 C76.4863051,8.90835278 76.9585758,8.72940583 77.5258136,8.72940583 C78.1065134,8.72940583 78.5829052,8.90622773 78.9558132,9.25960589 C79.0887853,9.38560367 79.1828365,9.50398668 79.2667225,9.6577872 C79.2763382,9.67540741 79.2993244,9.71534065 79.3053686,9.73428902 C79.3225854,9.78759236 79.280734,9.78759236 79.280734,9.78759236 L75.7838973,9.78759236 C75.7838973,9.78759236 75.7331628,9.78759236 75.7574311,9.73933601 C75.781791,9.6911682 75.8088067,9.64441709 75.8375624,9.59863997 C75.9124737,9.47937152 76.0015796,9.36771783 76.1091845,9.2658925 M78.9853015,11.9825038 C78.9725721,11.9968478 78.9602089,12.0114576 78.9460143,12.0250048 C78.5665126,12.3844039 78.0910366,12.5640592 77.5192199,12.5640592 C76.9474948,12.5640592 76.4752241,12.3866175 76.1026824,12.0310257 C75.9369252,11.8730637 75.810913,11.6919031 75.7208913,11.4896692 C75.6812377,11.4007712 75.6482695,11.3078888 75.6226275,11.2109334 C75.6175906,11.1921621 75.6202464,11.1786149 75.6261074,11.1689636 C75.6324264,11.1583384 75.6458884,11.1458537 75.6624641,11.1455881 C75.6736367,11.1454995 75.7257449,11.1455881 75.7257449,11.1455881 L77.141733,11.1455881 L79.4496965,11.1455881 C79.8592359,11.1454995 80.7425113,11.1454995 81.1520508,11.1455881 C81.1540655,11.1455881 81.2582819,11.147359 81.2693629,11.0593465 C81.2693629,11.0593465 81.2940893,10.8514457 81.2940893,10.6403574 C81.2942723,10.1344183 81.1591939,9.66478216 81.1591939,9.66478216 C81.0755827,9.3745357 80.9534168,9.09447177 80.7925133,8.82476746 C80.458343,8.26410834 79.9930322,7.82032699 79.3969472,7.49306924 C78.8005875,7.1662542 78.16375,7.00253678 77.4864348,7.00253678 C76.5494027,7.00253678 75.7199755,7.31695569 74.9985194,7.94535079 C74.1755943,8.66733665 73.7644064,9.57012888 73.7644064,10.6531962 C73.7644064,11.6638347 74.1283397,12.5228863 74.8563894,13.2300854 C75.5845308,13.9371074 76.4634104,14.2909282 77.4928453,14.2909282 C78.1923225,14.2909282 78.8328231,14.1303984 79.4135229,13.8097814 C79.9143662,13.5331707 80.3188688,13.1586306 80.637837,12.6969634 C80.6442475,12.6876663 80.6477275,12.6656189 80.6246497,12.6549051 C80.4560535,12.5768095 80.2837026,12.5063287 80.1131833,12.4322175 C79.8381728,12.312772 79.5629792,12.1936806 79.2875108,12.0749434 C79.1359482,12.0095981 79.1100315,11.9985302 79.0828327,11.9867539 C79.0538023,11.9740921 79.0167129,11.9473519 78.9853015,11.9825038" id="Fill-15" fill="#000000"></path>
                        <path d="M29.1966262,10.6349473 C29.1966262,10.7520907 29.1318802,10.8602912 29.0268395,10.9189072 L27.1166934,11.9835574 C27.0117444,12.0421734 26.8821607,12.0421734 26.7770285,11.9835574 L24.8669739,10.9189072 C24.7616586,10.8602912 24.6971872,10.7520907 24.6971872,10.6349473 L24.6971872,8.50564688 C24.6971872,8.38850348 24.7616586,8.280303 24.8669739,8.22150994 L26.7770285,7.15694825 C26.8821607,7.09842082 27.0117444,7.09842082 27.1166934,7.15694825 L29.0268395,8.22150994 C29.1318802,8.280303 29.1966262,8.38850348 29.1966262,8.50564688 L29.1966262,10.6349473 Z M30.8537407,6.94346923 L27.3499441,4.99054795 C27.1003924,4.8514457 26.7932379,4.8514457 26.5437778,4.99054795 L23.0400728,6.94346923 C22.7906127,7.08248294 22.6369438,7.33934841 22.6369438,7.61728728 L22.6369438,11.5231298 C22.6369438,11.8012458 22.7907959,12.0581113 23.0400728,12.197125 L26.5437778,14.1501348 C26.7932379,14.2889714 27.1003924,14.2889714 27.3499441,14.1501348 L30.8537407,12.197125 C31.1030176,12.0581113 31.2566865,11.8012458 31.2566865,11.5231298 L31.2566865,7.61728728 C31.2566865,7.33934841 31.1030176,7.08248294 30.8537407,6.94346923 L30.8537407,6.94346923 Z" id="Fill-17" fill="#000000"></path>
                        <g>
                            <mask id="mask-3" fill="white">
                                <use xlink:href="#path-2"></use>
                            </mask>
                            <g id="Clip-20"></g>
                            <path d="M16.3720438,7.79791657 C15.969739,8.29048553 14.9353589,8.49032881 14.1135327,8.23673946 C13.3294369,7.99466081 13.07668,7.43931432 13.5014215,7.00164249 C13.9107777,6.58017417 14.826472,6.39821673 15.5896879,6.58867437 C16.3869711,6.78754366 16.7581391,7.3251814 16.3720438,7.79791657 M12.7461729,6.79214794 C12.3169441,7.21574131 11.3960298,7.39796438 10.7308946,7.19263139 C10.3608255,7.07840993 10.1566968,6.84040429 10.145799,6.64162354 C10.1373738,6.48853137 9.89853682,6.3481895 9.63552313,6.27230749 C9.37076944,6.19571714 9.06480539,6.20288918 8.75801714,6.23901504 C8.6799006,6.24831213 8.51579178,6.28257857 8.41065957,6.31649083 C8.12859753,6.40733674 7.88408271,6.50987042 7.6805951,6.67341075 C7.42738031,6.87697287 7.34312802,7.23840851 7.34889747,7.37272941 C7.35723112,7.56097345 7.53699988,7.72203456 7.81036195,7.82146921 C8.07914509,7.91913298 8.4134985,7.93693028 8.74647824,7.88601761 C9.15336188,7.7803849 9.59880012,7.77595771 9.96410709,7.90027316 C10.6330886,8.12791918 10.8021427,8.71044861 10.2958963,9.20983544 C9.76886155,9.7301186 8.75444557,9.92544615 8.08042719,9.63891853 C7.70687815,9.48015956 7.5753713,9.18991309 7.55549875,8.92171403 C7.53983881,8.71239657 7.34560064,8.54469468 7.081488,8.44003595 C6.81591011,8.33475741 6.50536713,8.33847625 6.15810114,8.36725297 C6.11240343,8.37106036 5.9059853,8.41117068 5.77859949,8.44366624 C5.60460018,8.48793813 5.24716897,8.58498209 4.94688279,8.87062428 C4.70969426,9.09641088 4.60392099,9.30944718 4.54329597,9.43774709 C4.50867926,9.51132696 4.46636996,9.67814341 4.46453839,9.73525414 C4.45675421,9.97095765 4.59512945,10.1843481 4.86510311,10.3213253 C5.13104732,10.456266 5.48215961,10.4923033 5.84554343,10.4409479 C6.29757532,10.322742 6.77195239,10.3350496 7.13881619,10.5080641 C7.81301773,10.8262019 7.89177531,11.5822771 7.25860098,12.2070419 C6.59584677,12.8610261 5.46695757,13.0708749 4.79907495,12.6677351 C4.43312693,12.4469069 4.32689578,12.1138938 4.3785461,11.7258951 C4.3785461,11.7251867 4.3780882,11.7244784 4.3780882,11.7236815 C4.3780882,11.721645 4.37689768,11.6308876 4.36444299,11.5822771 C4.36444299,11.5821885 4.35455251,11.5053325 4.30400113,11.4067833 C4.2361414,11.274676 4.1236829,11.1649703 3.97120456,11.0799683 C3.7110298,10.934668 3.36724379,10.897214 3.00834732,10.9491006 C2.55878806,11.0666867 2.11884454,11.049952 1.83009726,10.8756978 C1.3377708,10.5783679 1.484846,9.947405 2.11701297,9.47086246 C2.44321588,9.22488788 2.84066694,9.06338405 3.2154065,9.00034089 L3.21696334,8.99910128 C3.57421139,8.92932879 3.94208257,8.77287196 4.23000563,8.54974167 C4.51270872,8.33050731 4.66005866,8.09197041 4.67287967,7.88548635 L4.67407019,7.88460091 C4.67544387,7.87999664 4.67864912,7.77347849 4.65886814,7.66067373 C4.6462303,7.48243513 4.65547973,7.30623304 4.82306854,7.11391598 C4.93021549,6.99128287 5.16255035,6.87210296 5.41686408,6.82588311 C5.59095497,6.79418445 5.81523092,6.80135649 5.94197568,6.79480425 C6.0517784,6.78913745 6.24345238,6.76753277 6.3109458,6.7479646 C6.56727425,6.67376493 6.72011891,6.59079942 6.91014447,6.44355114 C7.10419949,6.29311528 7.22453375,6.13524175 7.24559682,5.99135813 C7.25008417,5.96089907 7.26061571,5.82002594 7.25741046,5.80311408 C7.1926644,5.46558525 7.67903826,5.09520668 8.34399036,4.97576114 C8.68090797,4.9153743 8.99859408,4.93113509 9.23889628,5.00506913 C9.24713835,5.00692855 9.2559299,5.00843379 9.26417197,5.01038176 C9.50749627,5.07103424 9.6621725,5.18410462 9.72096595,5.32249853 L9.72353015,5.32320688 C9.72389646,5.32666008 9.72462909,5.3299362 9.72508698,5.33338941 C9.73461116,5.35835875 9.74175429,5.38385936 9.74495954,5.41033394 C9.80265404,5.55864475 9.96987654,5.68588214 10.2413155,5.75813385 C10.5079007,5.82905741 10.8254037,5.8341044 11.1326498,5.78443135 C11.5028105,5.68889263 11.921233,5.67339747 12.2798547,5.76282667 C12.9343669,5.92610137 13.1600165,6.38369555 12.7461729,6.79214794 M11.1924506,14.3005707 C10.5369311,15.1076471 9.22763212,15.3407828 8.35104191,14.8117338 C7.52564413,14.3134095 7.45274758,13.3494335 8.11623442,12.663485 C8.74904244,12.0089695 9.87371902,11.798501 10.6927063,12.1849945 C11.5582155,12.5932698 11.8147271,13.53449 11.1924506,14.3005707 M17.6217251,4.55402719 L9.75604054,0.163230431 C9.36609893,-0.0544101436 8.88576926,-0.0544101436 8.49591923,0.163230431 L0.6300515,4.55402719 C0.240109889,4.77166777 -9.15785839e-06,5.17392209 -9.15785839e-06,5.6091147 L-9.15785839e-06,14.3907968 C-9.15785839e-06,14.8261665 0.240109889,15.2282437 0.6300515,15.4459728 L8.49591923,19.8368581 C8.88576926,20.0544101 9.36609893,20.0544101 9.75604054,19.8368581 L17.6217251,15.4459728 C18.0116667,15.2282437 18.2517858,14.8261665 18.2517858,14.3907968 L18.2517858,5.6091147 C18.2517858,5.17392209 18.0116667,4.77166777 17.6217251,4.55402719" id="Fill-19" fill="#002FA7" mask="url(#mask-3)"></path>
                        </g>
                    </g>
                </g>
            </g>
        </g>
    </g>
</svg>